<svg width="245" height="51" viewBox="0 0 245 51" fill="none" xmlns="http://www.w3.org/2000/svg">
<path d="M64.0558 42.836C61.8438 42.836 60.0518 42.15 58.6798 40.778C57.3358 39.378 56.6638 37.558 56.6638 35.318V34.226C56.6638 33.946 56.8038 33.806 57.0838 33.806H60.1918C60.4718 33.806 60.6118 33.946 60.6118 34.226V35.108C60.6118 36.396 60.9338 37.432 61.5778 38.216C62.2218 38.972 63.0478 39.35 64.0558 39.35C65.0638 39.35 65.8898 38.986 66.5338 38.258C67.2058 37.502 67.5418 36.522 67.5418 35.318C67.5418 34.506 67.3598 33.792 66.9958 33.176C66.6598 32.56 66.1978 32.014 65.6098 31.538C65.0498 31.034 64.1258 30.306 62.8378 29.354C61.4098 28.29 60.2898 27.38 59.4778 26.624C58.6658 25.868 57.9798 24.958 57.4198 23.894C56.8598 22.83 56.5798 21.584 56.5798 20.156C56.5798 17.888 57.2518 16.096 58.5958 14.78C59.9398 13.436 61.6898 12.764 63.8458 12.764C66.0858 12.764 67.8778 13.478 69.2218 14.906C70.5938 16.334 71.2798 18.21 71.2798 20.534V21.584C71.2798 21.864 71.1398 22.004 70.8598 22.004H67.7518C67.4718 22.004 67.3318 21.864 67.3318 21.584V20.45C67.3318 19.19 67.0098 18.182 66.3658 17.426C65.7218 16.642 64.8818 16.25 63.8458 16.25C62.8658 16.25 62.0678 16.6 61.4518 17.3C60.8358 17.972 60.5278 18.924 60.5278 20.156C60.5278 21.276 60.8358 22.228 61.4518 23.012C62.0678 23.768 63.2578 24.79 65.0218 26.078C66.7018 27.338 67.9618 28.36 68.8018 29.144C69.6698 29.928 70.3278 30.796 70.7758 31.748C71.2518 32.672 71.4898 33.778 71.4898 35.066C71.4898 37.418 70.8038 39.308 69.4318 40.736C68.0598 42.136 66.2678 42.836 64.0558 42.836ZM82.3166 42.836C80.0486 42.836 78.2146 42.15 76.8146 40.778C75.4426 39.378 74.7566 37.53 74.7566 35.234V20.324C74.7566 18.028 75.4426 16.194 76.8146 14.822C78.2146 13.45 80.0486 12.764 82.3166 12.764C84.6126 12.764 86.4466 13.45 87.8186 14.822C89.2186 16.194 89.9186 18.028 89.9186 20.324V20.996C89.9186 21.276 89.7786 21.416 89.4986 21.416L86.3066 21.584C86.0266 21.584 85.8866 21.444 85.8866 21.164V20.072C85.8866 18.924 85.5506 18 84.8786 17.3C84.2346 16.6 83.3806 16.25 82.3166 16.25C81.2526 16.25 80.3986 16.6 79.7546 17.3C79.1106 18 78.7886 18.924 78.7886 20.072V35.528C78.7886 36.676 79.1106 37.6 79.7546 38.3C80.3986 39 81.2526 39.35 82.3166 39.35C83.3806 39.35 84.2346 39 84.8786 38.3C85.5506 37.6 85.8866 36.676 85.8866 35.528V34.436C85.8866 34.156 86.0266 34.016 86.3066 34.016L89.4986 34.184C89.7786 34.184 89.9186 34.324 89.9186 34.604V35.234C89.9186 37.53 89.2186 39.378 87.8186 40.778C86.4466 42.15 84.6126 42.836 82.3166 42.836ZM104.835 13.52C104.835 13.24 104.975 13.1 105.255 13.1H108.447C108.727 13.1 108.867 13.24 108.867 13.52V42.08C108.867 42.36 108.727 42.5 108.447 42.5H105.255C104.975 42.5 104.835 42.36 104.835 42.08V29.69C104.835 29.578 104.779 29.522 104.667 29.522H98.3249C98.2129 29.522 98.1569 29.578 98.1569 29.69V42.08C98.1569 42.36 98.0169 42.5 97.7369 42.5H94.5449C94.2649 42.5 94.1249 42.36 94.1249 42.08V13.52C94.1249 13.24 94.2649 13.1 94.5449 13.1H97.7369C98.0169 13.1 98.1569 13.24 98.1569 13.52V25.868C98.1569 25.98 98.2129 26.036 98.3249 26.036H104.667C104.779 26.036 104.835 25.98 104.835 25.868V13.52ZM127.672 16.166C127.672 16.446 127.532 16.586 127.252 16.586H117.802C117.69 16.586 117.634 16.642 117.634 16.754V25.868C117.634 25.98 117.69 26.036 117.802 26.036H123.598C123.878 26.036 124.018 26.176 124.018 26.456V29.102C124.018 29.382 123.878 29.522 123.598 29.522H117.802C117.69 29.522 117.634 29.578 117.634 29.69V38.846C117.634 38.958 117.69 39.014 117.802 39.014H127.252C127.532 39.014 127.672 39.154 127.672 39.434V42.08C127.672 42.36 127.532 42.5 127.252 42.5H114.022C113.742 42.5 113.602 42.36 113.602 42.08V13.52C113.602 13.24 113.742 13.1 114.022 13.1H127.252C127.532 13.1 127.672 13.24 127.672 13.52V16.166ZM144.583 13.394C144.695 13.198 144.863 13.1 145.087 13.1H148.279C148.559 13.1 148.699 13.24 148.699 13.52V42.08C148.699 42.36 148.559 42.5 148.279 42.5H145.087C144.807 42.5 144.667 42.36 144.667 42.08V21.248C144.667 21.164 144.639 21.122 144.583 21.122C144.555 21.122 144.513 21.15 144.457 21.206L140.425 28.724C140.341 28.92 140.215 29.018 140.047 29.018C139.879 29.018 139.753 28.92 139.669 28.724L135.679 21.248C135.623 21.192 135.567 21.164 135.511 21.164C135.483 21.164 135.469 21.206 135.469 21.29V42.08C135.469 42.36 135.329 42.5 135.049 42.5H131.857C131.577 42.5 131.437 42.36 131.437 42.08V13.52C131.437 13.24 131.577 13.1 131.857 13.1H135.049C135.245 13.1 135.413 13.198 135.553 13.394L139.963 21.29C139.991 21.318 140.033 21.332 140.089 21.332C140.145 21.332 140.187 21.318 140.215 21.29L144.583 13.394ZM165.091 42.5C164.839 42.5 164.685 42.374 164.629 42.122L163.705 37.292C163.705 37.236 163.677 37.194 163.621 37.166C163.593 37.138 163.551 37.124 163.495 37.124H156.649C156.593 37.124 156.537 37.138 156.481 37.166C156.453 37.194 156.439 37.236 156.439 37.292L155.557 42.122C155.529 42.374 155.375 42.5 155.095 42.5H151.903C151.763 42.5 151.651 42.458 151.567 42.374C151.511 42.29 151.497 42.178 151.525 42.038L157.783 13.478C157.839 13.226 157.993 13.1 158.245 13.1H161.983C162.263 13.1 162.417 13.226 162.445 13.478L168.745 42.038V42.122C168.745 42.374 168.619 42.5 168.367 42.5H165.091ZM157.153 33.764C157.153 33.876 157.195 33.932 157.279 33.932H162.865C162.949 33.932 162.991 33.876 162.991 33.764L160.135 18.854C160.107 18.798 160.079 18.77 160.051 18.77C160.023 18.77 159.995 18.798 159.967 18.854L157.153 33.764Z" fill="#326DE6"/>
<path d="M182.376 13.52C182.376 13.24 182.516 13.1 182.796 13.1H185.988C186.268 13.1 186.408 13.24 186.408 13.52V42.08C186.408 42.36 186.268 42.5 185.988 42.5H182.796C182.516 42.5 182.376 42.36 182.376 42.08V29.69C182.376 29.578 182.32 29.522 182.208 29.522H175.866C175.754 29.522 175.698 29.578 175.698 29.69V42.08C175.698 42.36 175.558 42.5 175.278 42.5H172.086C171.806 42.5 171.666 42.36 171.666 42.08V13.52C171.666 13.24 171.806 13.1 172.086 13.1H175.278C175.558 13.1 175.698 13.24 175.698 13.52V25.868C175.698 25.98 175.754 26.036 175.866 26.036H182.208C182.32 26.036 182.376 25.98 182.376 25.868V13.52ZM205.213 16.166C205.213 16.446 205.073 16.586 204.793 16.586H195.343C195.231 16.586 195.175 16.642 195.175 16.754V25.868C195.175 25.98 195.231 26.036 195.343 26.036H201.139C201.419 26.036 201.559 26.176 201.559 26.456V29.102C201.559 29.382 201.419 29.522 201.139 29.522H195.343C195.231 29.522 195.175 29.578 195.175 29.69V38.846C195.175 38.958 195.231 39.014 195.343 39.014H204.793C205.073 39.014 205.213 39.154 205.213 39.434V42.08C205.213 42.36 205.073 42.5 204.793 42.5H191.563C191.283 42.5 191.143 42.36 191.143 42.08V13.52C191.143 13.24 191.283 13.1 191.563 13.1H204.793C205.073 13.1 205.213 13.24 205.213 13.52V16.166ZM220.738 42.5C220.486 42.5 220.318 42.388 220.234 42.164L216.37 29.648C216.342 29.564 216.286 29.522 216.202 29.522H213.262C213.15 29.522 213.094 29.578 213.094 29.69V42.08C213.094 42.36 212.954 42.5 212.674 42.5H209.482C209.202 42.5 209.062 42.36 209.062 42.08V13.52C209.062 13.24 209.202 13.1 209.482 13.1H217C218.428 13.1 219.688 13.45 220.78 14.15C221.872 14.85 222.712 15.844 223.3 17.132C223.916 18.392 224.224 19.834 224.224 21.458C224.224 23.222 223.86 24.762 223.132 26.078C222.404 27.366 221.41 28.304 220.15 28.892C220.066 28.976 220.038 29.06 220.066 29.144L224.35 42.038L224.392 42.206C224.392 42.402 224.266 42.5 224.014 42.5H220.738ZM213.262 16.586C213.15 16.586 213.094 16.642 213.094 16.754V26.162C213.094 26.274 213.15 26.33 213.262 26.33H216.37C217.518 26.33 218.442 25.896 219.142 25.028C219.842 24.132 220.192 22.956 220.192 21.5C220.192 19.988 219.842 18.798 219.142 17.93C218.442 17.034 217.518 16.586 216.37 16.586H213.262ZM234.939 42.836C232.643 42.836 230.795 42.136 229.395 40.736C227.995 39.336 227.295 37.474 227.295 35.15V20.492C227.295 18.168 227.995 16.306 229.395 14.906C230.795 13.478 232.643 12.764 234.939 12.764C237.263 12.764 239.125 13.478 240.525 14.906C241.953 16.306 242.667 18.168 242.667 20.492V35.15C242.667 37.474 241.953 39.336 240.525 40.736C239.125 42.136 237.263 42.836 234.939 42.836ZM234.939 39.35C236.059 39.35 236.955 38.986 237.627 38.258C238.299 37.502 238.635 36.522 238.635 35.318V20.282C238.635 19.078 238.299 18.112 237.627 17.384C236.955 16.628 236.059 16.25 234.939 16.25C233.847 16.25 232.965 16.628 232.293 17.384C231.649 18.112 231.327 19.078 231.327 20.282V35.318C231.327 36.522 231.649 37.502 232.293 38.258C232.965 38.986 233.847 39.35 234.939 39.35Z" fill="#1D4493"/>
<path fill-rule="evenodd" clip-rule="evenodd" d="M21.2894 6.86848C21.0636 6.75496 20.7974 6.75496 20.5716 6.86848L5.76546 14.3124C5.55215 14.4197 5.39798 14.6167 5.34517 14.8495L1.74398 30.7275C1.69038 30.9638 1.74693 31.2117 1.89771 31.4014L12.0376 44.1581C12.1892 44.3488 12.4195 44.4599 12.6631 44.4599H29.1979C29.4415 44.4599 29.6718 44.3488 29.8233 44.1581L39.9633 31.4014C40.1141 31.2117 40.1706 30.9638 40.117 30.7275L36.5158 14.8495C36.463 14.6167 36.3088 14.4197 36.0955 14.3124L21.2894 6.86848ZM19.8538 5.44084C20.5312 5.10029 21.3298 5.10029 22.0071 5.44084L36.8133 12.8848C37.4532 13.2065 37.9157 13.7976 38.0742 14.4961L41.6753 30.3741C41.8361 31.083 41.6665 31.8266 41.2142 32.3957L31.0742 45.1524C30.6195 45.7245 29.9287 46.0578 29.1979 46.0578H12.6631C11.9323 46.0578 11.2415 45.7245 10.7868 45.1524L0.646817 32.3957C0.194484 31.8266 0.0248501 31.083 0.185639 30.3741L3.78683 14.4961C3.94526 13.7976 4.40777 13.2065 5.0477 12.8848L19.8538 5.44084Z" fill="#326DE6"/>
<path fill-rule="evenodd" clip-rule="evenodd" d="M21.8154 6.05621L26.8853 29.9323L4.20496 15.1474L5.07757 13.8088L24.5192 26.4824L20.2523 6.38812L21.8154 6.05621Z" fill="#326DE6"/>
<path fill-rule="evenodd" clip-rule="evenodd" d="M40.0122 31.7668L25.5097 28.775L25.814 27.2084L40.3165 30.2002L40.0122 31.7668Z" fill="#326DE6"/>
<path fill-rule="evenodd" clip-rule="evenodd" d="M26.2494 28.4967L12.7301 45.0686L11.4919 44.0585L25.0113 27.4866L26.2494 28.4967Z" fill="#326DE6"/>
<path fill-rule="evenodd" clip-rule="evenodd" d="M11.3356 44.6901L3.86591 14.671L5.41654 14.2852L12.8863 44.3042L11.3356 44.6901Z" fill="#326DE6"/>
<path fill-rule="evenodd" clip-rule="evenodd" d="M39.3333 32.5167L14.2992 44.6901L13.7068 43.3716L38.7409 31.1982L39.3333 32.5167Z" fill="#326DE6"/>
<path d="M28.5754 27.4866C28.5754 29.2027 27.1842 30.5939 25.4681 30.5939C23.7519 30.5939 22.3607 29.2027 22.3607 27.4866C22.3607 25.7705 23.7519 24.3793 25.4681 24.3793C27.1842 24.3793 28.5754 25.7705 28.5754 27.4866Z" fill="#1D4493"/>
<path d="M42.477 31.1982C42.477 32.3684 41.5284 33.3171 40.3582 33.3171C39.1879 33.3171 38.2393 32.3684 38.2393 31.1982C38.2393 30.028 39.1879 29.0793 40.3582 29.0793C41.5284 29.0793 42.477 30.028 42.477 31.1982Z" fill="#1D4493"/>
<path d="M14.8873 44.236C14.8873 45.6706 13.7243 46.8335 12.2897 46.8335C10.8551 46.8335 9.69211 45.6706 9.69211 44.236C9.69211 42.8013 10.8551 41.6384 12.2897 41.6384C13.7243 41.6384 14.8873 42.8013 14.8873 44.236Z" fill="#1D4493"/>
<path d="M6.6541 14.4781C6.6541 15.5898 5.75291 16.491 4.64123 16.491C3.52955 16.491 2.62836 15.5898 2.62836 14.4781C2.62836 13.3664 3.52955 12.4652 4.64123 12.4652C5.75291 12.4652 6.6541 13.3664 6.6541 14.4781Z" fill="#1D4493"/>
<path d="M22.8203 6.05619C22.8203 7.09987 21.9742 7.94594 20.9305 7.94594C19.8868 7.94594 19.0408 7.09987 19.0408 6.05619C19.0408 5.01251 19.8868 4.16644 20.9305 4.16644C21.9742 4.16644 22.8203 5.01251 22.8203 6.05619Z" fill="#1D4493"/>
</svg>
