
<svg width="113px" height="80px" viewBox="0 0 113 80" version="1.1" xmlns="http://www.w3.org/2000/svg" xmlns:xlink="http://www.w3.org/1999/xlink">
    <g id="Page-1" stroke="none" stroke-width="1" fill="none" fill-rule="evenodd">
        <g id="Group">
            <polygon id="Path" fill="#79A5FF" points="33.0119774 11.2800678 44.3685876 11.2800678 46.5080226 4.78271186"></polygon>
            <polygon id="Path" fill="#5489F3" points="50.8612429 2.68696045 62.0110734 2.68696045 64.2888136 9.18429379"></polygon>
            <polygon id="Path" fill="#326DE6" points="46.5080226 4.78271186 46.5080226 11.2800678 44.3685876 11.2800678"></polygon>
            <polygon id="Path" fill="#79A5FF" points="46.5080226 4.78271186 56.4352542 15.1516836 56.4361582 5.38517514"></polygon>
            <polygon id="Path" fill="#A8C4FF" points="50.8612429 2.68696045 62.0110734 2.68696045 56.4361582 0"></polygon>
            <polygon id="Path" fill="#326DE6" points="46.5080226 4.78271186 56.4361582 5.38666667 50.8612429 2.68696045"></polygon>
            <polygon id="Path" fill="#A8C4FF" points="46.5080226 4.78271186 46.5080226 23.8427119 56.4352542 15.1516836"></polygon>
            <polygon id="Path" fill="#A8C4FF" points="33.0119774 11.2800678 42.4375141 20.6067571 46.5080226 11.2800678"></polygon>
            <polygon id="Path" fill="#79A5FF" points="46.5080226 11.2800678 46.5080226 32.6725424 42.4375141 20.6067571"></polygon>
            <polygon id="Path" fill="#79A5FF" points="42.4375141 20.6067571 33.0119774 11.2800678 30.8824859 20.6067571"></polygon>
            <polygon id="Path" fill="#5489F3" points="46.5080226 32.6725424 56.4352542 15.1516836 46.5080226 23.8427119"></polygon>
            <polygon id="Path" fill="#A8C4FF" points="42.4375141 20.6067571 39.76 26.3089266 46.5080226 32.6725424"></polygon>
            <polygon id="Path" fill="#79A5FF" points="39.76 26.3089266 28.7475706 29.959548 30.8824859 20.6067571"></polygon>
            <polygon id="Path" fill="#5489F3" points="30.8824859 20.6067571 39.76 26.3089266 42.4375141 20.6067571"></polygon>
            <polygon id="Path" fill="#326DE6" points="27.2268927 36.6262147 39.76 26.3089266 28.7475706 29.959548"></polygon>
            <polygon id="Path" fill="#A8C4FF" points="56.4361582 15.1516836 64.2888136 9.18429379 56.4361582 5.38517514"></polygon>
            <polygon id="Path" fill="#A8C4FF" points="64.2888136 9.18429379 73.1039548 8.0240678 62.0110734 2.68696045"></polygon>
            <polygon id="Path" fill="#5489F3" points="56.4352542 15.1516836 64.2888136 20.2491977 73.1039548 8.0240678 64.2888136 9.18429379"></polygon>
            <polygon id="Path" fill="#2C60C8" points="55.3984181 26.4610169 64.2888136 20.2491977 56.4352542 15.1516836"></polygon>
            <polygon id="Path" fill="#326DE6" points="52.679548 28.3577401 51.4720904 38.72 64.2888136 27.5444068 58.059661 24.599548"></polygon>
            <polygon id="Path" fill="#2D55A5" points="51.4716384 38.72 46.5080226 44.3957062 34.1380791 35.2097175 46.5080226 32.6725424"></polygon>
            <polygon id="Path" fill="#2D55A5" points="27.2268927 36.6262147 34.1380791 35.2097175 33.4212429 44.3957062"></polygon>
            <polygon id="Path" fill="#5489F3" points="33.4212429 44.3957062 46.5080226 44.3957062 38.8343503 38.6960452"></polygon>
            <polygon id="Path" fill="#326DE6" points="34.1380791 35.2097175 33.4212429 44.3957062 38.8343503 38.6960452"></polygon>
            <polygon id="Path" fill="#234A96" points="40.1319774 44.3957062 33.4212429 44.3957062 36.8275706 48.6648588"></polygon>
            <polygon id="Path" fill="#1D52BB" points="38.8343503 48.6648588 42.8049718 48.6648588 46.5080226 44.3957062 40.1319774 44.3957062"></polygon>
            <polygon id="Path" fill="#326DE6" points="36.8275706 48.6648588 38.8343503 48.6648588 40.1319774 44.3957062"></polygon>
            <polygon id="Path" fill="#5489F3" points="42.8049718 48.6648588 43.4361582 56.9520904 36.8275706 48.6648588"></polygon>
            <polygon id="Path" fill="#1D4493" points="42.8049718 48.6648588 51.4720904 48.6648588 51.4720904 38.72"></polygon>
            <polygon id="Path" fill="#234A96" points="51.4720904 48.6648588 42.8049718 48.6648588 43.4361582 56.9520904"></polygon>
            <polygon id="Path" fill="#2D55A5" points="64.2888136 20.2491977 64.2888136 27.5444068 73.5769492 20.2491977"></polygon>
            <polygon id="Path" fill="#326DE6" points="64.2888136 20.2491977 81.9057627 20.2491977 79.8585311 11.2800678"></polygon>
            <polygon id="Path" fill="#326DE6" points="64.2888136 27.5444068 68.9328814 32.0854237 73.5769492 20.2491977"></polygon>
            <polygon id="Path" fill="#2D55A5" points="51.4720904 38.72 68.9328814 32.0854237 64.2888136 27.5444068"></polygon>
            <polygon id="Path" fill="#1D52BB" points="68.9328814 32.0854237 81.3303955 26.639548 81.9057627 20.2491977 73.5769492 20.2491977"></polygon>
            <polygon id="Path" fill="#12357C" points="81.3303955 26.639548 81.9057627 20.2491977 83.3658757 26.639548"></polygon>
            <polygon id="Path" fill="#1D52BB" points="81.3303955 26.639548 78.3581921 32.0854237 84.7432768 32.6700565 83.3658757 26.639548"></polygon>
            <polygon id="Path" fill="#12357C" points="78.3581921 32.0854237 68.9328814 32.0854237 81.3303955 26.639548"></polygon>
            <polygon id="Path" fill="#1D4493" points="73.5769492 32.0854237 65.2659887 39.8027119 51.4720904 38.72 68.9328814 32.0854237"></polygon>
            <polygon id="Path" fill="#326DE6" points="65.2659887 39.8027119 78.3581921 32.0854237 73.5769492 32.0854237"></polygon>
            <polygon id="Path" fill="#5489F3" points="51.4720904 48.6648588 58.8540113 39.299887 51.4720904 38.72"></polygon>
            <polygon id="Path" fill="#1D4493" points="58.3690395 44.3957062 65.2659887 39.8027119 58.8540113 39.299887"></polygon>
            <polygon id="Path" fill="#1D52BB" points="58.3690395 44.3957062 58.8540113 39.299887 51.4720904 48.6648588"></polygon>
            <polygon id="Path" fill="#12357C" points="78.3581921 32.0854237 81.3303955 38.5340113 85.6436158 36.6262147 84.7432768 32.6700565"></polygon>
            <polygon id="Path" fill="#1D4493" points="81.3303955 38.5340113 85.6436158 36.6262147 81.3303955 42.0370621"></polygon>
            <polygon id="Path" fill="#12357C" points="81.3303955 42.0370621 73.5769492 34.9080226 78.3581921 32.0854237"></polygon>
            <polygon id="Path" fill="#326DE6" points="78.3581921 32.0854237 81.3303955 38.5340113 81.3303955 42.0370621"></polygon>
            <polygon id="Path" fill="#1D4493" points="65.2659887 39.8027119 81.3303955 42.0370621 73.5769492 34.9080226"></polygon>
            <polygon id="Path" fill="#1D52BB" points="65.2659887 39.8027119 71.8119774 44.8824859 71.8119774 40.7129944"></polygon>
            <polygon id="Path" fill="#12357C" points="71.8119774 44.8824859 79.0587571 44.8824859 81.3303955 42.0370621 71.8119774 40.7129944"></polygon>
            <polygon id="Path" fill="#2D55A5" points="71.8119774 44.8824859 79.0587571 44.8824859 75.4354802 49.4271186"></polygon>
            <polygon id="Path" fill="#12357C" points="71.8119774 44.8824859 71.8119774 53.9760452 75.4354802 49.4271186"></polygon>
            <polygon id="Path" fill="#1D52BB" points="51.4720904 48.6648588 49.6781921 56.9520904 43.4361582 56.9520904"></polygon>
            <polygon id="Path" fill="#12357C" points="51.4716384 48.6648588 60.9699435 48.6648588 66.359322 44.8824859 57.5846328 44.8824859"></polygon>
            <polygon id="Path" fill="#2D55A5" points="66.359322 44.8824859 62.6171751 41.5688136 57.5846328 44.8824859"></polygon>
            <polygon id="Path" fill="#1D4493" points="66.359322 44.8824859 65.2659887 39.8027119 62.6171751 41.5688136"></polygon>
            <polygon id="Path" fill="#234A96" points="71.8119774 44.8824859 66.359322 44.8824859 65.2659887 39.8027119"></polygon>
            <polygon id="Path" fill="#326DE6" points="49.6781921 56.9520904 60.9699435 48.6648588 51.4720904 48.6648588"></polygon>
            <polygon id="Path" fill="#12357C" points="49.6781921 56.9520904 57.5846328 56.9520904 56.4352542 51.9981921"></polygon>
            <polygon id="Path" fill="#326DE6" points="69.4341243 56.9520904 71.8119774 44.8824859 71.8119774 53.9760452"></polygon>
            <polygon id="Path" fill="#12357C" points="71.8119774 44.8824859 66.359322 44.8824859 69.4341243 56.9520904"></polygon>
            <polygon id="Path" fill="#1D4493" points="69.4341243 56.9520904 60.9699435 48.6648588 66.359322 44.8824859"></polygon>
            <polygon id="Path" fill="#1D4493" points="60.9699435 48.6648588 57.5846328 56.9520904 56.4352542 51.9984181"></polygon>
            <polygon id="Path" fill="#12357C" points="57.5846328 56.9520904 69.4341243 56.9520904 64.3762712 51.9981921"></polygon>
            <polygon id="Path" fill="#2D55A5" points="57.5846328 56.9520904 60.9699435 48.6648588 64.3762712 51.9984181"></polygon>
            <polygon id="Path" fill="#5489F3" points="58.059661 24.599548 64.2888136 20.2491977 64.2888136 27.5444068"></polygon>
            <polygon id="Path" fill="#79A5FF" points="46.5080226 32.6700565 55.3984181 26.4610169 52.5425989 22.0324972"></polygon>
            <polygon id="Path" fill="#79A5FF" points="52.5425989 22.0324972 55.3984181 26.4610169 56.4361582 15.1516836"></polygon>
            <polygon id="Path" fill="#2D55A5" points="64.2888136 20.2491977 73.0974011 8.03138983 75.1215819 14.0045424"></polygon>
            <polygon id="Path" fill="#5489F3" points="75.1215819 14.0045424 79.8585311 11.2800678 73.1039548 8.03138983"></polygon>
            <polygon id="Path" fill="#5489F3" points="51.4720904 38.6960452 52.679548 28.3577401 46.5080226 32.6725424"></polygon>
            <polygon id="Path" fill="#2C60C8" points="27.2268927 36.6262147 39.76 26.3089266 46.5080226 32.6725424"></polygon>
            <g opacity="0.857887" transform="translate(27.344633, 0.677966)" id="Path">
                <path d="M13.2359322,16.9092655 C13.6070056,16.9092655 13.9077966,16.6085198 13.9077966,16.2375367 C13.9077966,15.8665311 13.6070056,15.5657853 13.2359322,15.5657853 C12.8650847,15.5657853 12.5642938,15.8665311 12.5642938,16.2375367 C12.5642938,16.6085198 12.8650847,16.9092655 13.2359322,16.9092655 Z" fill="#FFFFFF"></path>
                <path d="M5.17514124,30.6126554 C5.54621469,30.6126554 5.84700565,30.3120904 5.84700565,29.9410169 C5.84700565,29.5699435 5.54621469,29.2691525 5.17514124,29.2691525 C4.80429379,29.2691525 4.50350282,29.5699435 4.50350282,29.9410169 C4.50350282,30.3120904 4.80429379,30.6126554 5.17514124,30.6126554 Z" fill="#FFFFFF"></path>
                <path d="M21.8343503,25.3731073 C22.2051977,25.3731073 22.5059887,25.0723164 22.5059887,24.7014689 C22.5059887,24.3303955 22.2051977,24.0296045 21.8343503,24.0296045 C21.4632768,24.0296045 21.1624859,24.3303955 21.1624859,24.7014689 C21.1624859,25.0723164 21.4632768,25.3731073 21.8343503,25.3731073 Z" fill="#FFFFFF"></path>
                <path d="M32.1789831,29.9410169 C32.5500565,29.9410169 32.8508475,29.640226 32.8508475,29.2691525 C32.8508475,28.8983051 32.5500565,28.5975141 32.1789831,28.5975141 C31.8081356,28.5975141 31.5073446,28.8983051 31.5073446,29.2691525 C31.5073446,29.640226 31.8081356,29.9410169 32.1789831,29.9410169 Z" fill="#FFFFFF"></path>
                <path d="M16.460339,39.8827119 C16.8314124,39.8827119 17.1322034,39.5819209 17.1322034,39.2110734 C17.1322034,38.84 16.8314124,38.539209 16.460339,38.539209 C16.0894915,38.539209 15.7887006,38.84 15.7887006,39.2110734 C15.7887006,39.5819209 16.0894915,39.8827119 16.460339,39.8827119 Z" fill="#FFFFFF"></path>
                <path d="M26.939435,45.1222599 C27.3105085,45.1222599 27.6112994,44.8214689 27.6112994,44.4506215 C27.6112994,44.079548 27.3105085,43.7787571 26.939435,43.7787571 C26.5685876,43.7787571 26.2677966,44.079548 26.2677966,44.4506215 C26.2677966,44.8214689 26.5685876,45.1222599 26.939435,45.1222599 Z" fill="#FFFFFF"></path>
                <path d="M44.8076836,27.5227119 C45.1787571,27.5227119 45.479548,27.2219209 45.479548,26.8510734 C45.479548,26.48 45.1787571,26.179209 44.8076836,26.179209 C44.4368362,26.179209 44.1360452,26.48 44.1360452,26.8510734 C44.1360452,27.2219209 44.4368362,27.5227119 44.8076836,27.5227119 Z" fill="#FFFFFF"></path>
                <path d="M53.2716384,31.2845198 C53.6427119,31.2845198 53.9432768,30.9837288 53.9432768,30.6126554 C53.9432768,30.2418079 53.6427119,29.9410169 53.2716384,29.9410169 C52.900565,29.9410169 52.599774,30.2418079 52.599774,30.6126554 C52.599774,30.9837288 52.900565,31.2845198 53.2716384,31.2845198 Z" fill="#FFFFFF"></path>
                <path d="M42.7925424,38.539209 C43.1633898,38.539209 43.4641808,38.2384181 43.4641808,37.8675706 C43.4641808,37.4964972 43.1633898,37.1957062 42.7925424,37.1957062 C42.4214689,37.1957062 42.120678,37.4964972 42.120678,37.8675706 C42.120678,38.2384181 42.4214689,38.539209 42.7925424,38.539209 Z" fill="#FFFFFF"></path>
                <path d="M47.2259887,46.4657627 C47.5970621,46.4657627 47.8976271,46.1649718 47.8976271,45.7938983 C47.8976271,45.4230508 47.5970621,45.1222599 47.2259887,45.1222599 C46.8549153,45.1222599 46.5543503,45.4230508 46.5543503,45.7938983 C46.5543503,46.1649718 46.8549153,46.4657627 47.2259887,46.4657627 Z" fill="#FFFFFF"></path>
                <path d="M39.1651977,50.2275706 C39.5360452,50.2275706 39.8368362,49.9267797 39.8368362,49.5557062 C39.8368362,49.1848588 39.5360452,48.8840678 39.1651977,48.8840678 C38.7941243,48.8840678 38.4933333,49.1848588 38.4933333,49.5557062 C38.4933333,49.9267797 38.7941243,50.2275706 39.1651977,50.2275706 Z" fill="#FFFFFF"></path>
                <path d="M43.4641808,9.25145763 C43.8352542,9.25145763 44.1360452,8.95071186 44.1360452,8.57972881 C44.1360452,8.20872316 43.8352542,7.9079774 43.4641808,7.9079774 C43.0933333,7.9079774 42.7925424,8.20872316 42.7925424,8.57972881 C42.7925424,8.95071186 43.0933333,9.25145763 43.4641808,9.25145763 Z" fill="#FFFFFF"></path>
                <path d="M50.9877966,16.9092655 C51.3586441,16.9092655 51.659435,16.6085198 51.659435,16.2375367 C51.659435,15.8665311 51.3586441,15.5657853 50.9877966,15.5657853 C50.6167232,15.5657853 50.3159322,15.8665311 50.3159322,16.2375367 C50.3159322,16.6085198 50.6167232,16.9092655 50.9877966,16.9092655 Z" fill="#FFFFFF"></path>
                <path d="M14.579435,52.6456497 C14.9505085,52.6456497 15.2512994,52.3450847 15.2512994,51.9740113 C15.2512994,51.6029379 14.9505085,51.3021469 14.579435,51.3021469 C14.2085876,51.3021469 13.9077966,51.6029379 13.9077966,51.9740113 C13.9077966,52.3450847 14.2085876,52.6456497 14.579435,52.6456497 Z" fill="#FFFFFF"></path>
                <path d="M24.1181921,7.9079774 C24.4892655,7.9079774 24.7898305,7.60723164 24.7898305,7.23624859 C24.7898305,6.86524294 24.4892655,6.56449718 24.1181921,6.56449718 C23.7471186,6.56449718 23.4465537,6.86524294 23.4465537,7.23624859 C23.4465537,7.60723164 23.7471186,7.9079774 24.1181921,7.9079774 Z" fill="#FFFFFF"></path>
                <path d="M35.5376271,16.9092655 C35.9087006,16.9092655 36.2094915,16.6085198 36.2094915,16.2375367 C36.2094915,15.8665311 35.9087006,15.5657853 35.5376271,15.5657853 C35.1667797,15.5657853 34.8659887,15.8665311 34.8659887,16.2375367 C34.8659887,16.6085198 35.1667797,16.9092655 35.5376271,16.9092655 Z" fill="#FFFFFF"></path>
                <line x1="13.2359322" y1="16.2375367" x2="8.33242938" y2="9.27692655" stroke="#FFFFFF"></line>
                <polygon stroke="#FFFFFF" points="13.2359322 16.2375367 5.17514124 29.9410169 16.460339 39.2110734"></polygon>
                <line x1="5.17514124" y1="29.9410169" x2="1.40158192" y2="28.9645198" stroke="#FFFFFF"></line>
                <line x1="5.17514124" y1="29.9410169" x2="0.150960452" y2="34.519548" stroke="#FFFFFF"></line>
                <line x1="5.17514124" y1="29.9410169" x2="3.46485876" y2="20.0743277" stroke="#FFFFFF"></line>
                <line x1="13.2359322" y1="16.2375367" x2="4.19299435" y2="16.9878418" stroke="#FFFFFF"></line>
                <polygon stroke="#FFFFFF" points="16.460339 39.2110734 14.579435 52.1181921 26.939435 44.4506215"></polygon>
                <polygon stroke="#FFFFFF" points="26.939435 44.4506215 32.1789831 29.2691525 39.1651977 49.5557062"></polygon>
                <polyline stroke="#FFFFFF" points="26.939435 44.4506215 32.1789831 29.2691525 16.460339 39.4124294"></polyline>
                <polygon stroke="#FFFFFF" points="21.8343503 24.7014689 35.5376271 16.2375367 24.1254237 7.23624859"></polygon>
                <polyline stroke="#FFFFFF" points="21.8343503 24.5927684 13.2359322 16.2375367 24.1181921 7.34112994"></polyline>
                <line x1="21.8343503" y1="24.7014689" x2="16.460339" y2="39.1125424" stroke="#FFFFFF"></line>
                <line x1="21.8343503" y1="24.7014689" x2="32.1789831" y2="29.2691525" stroke="#FFFFFF"></line>
                <polygon stroke="#FFFFFF" points="35.5376271 16.2375367 44.8076836 26.8542373 32.1789831 29.2691525"></polygon>
                <polyline stroke="#FFFFFF" points="44.8076836 26.8510734 42.7925424 37.8675706 32.1789831 29.4526554"></polyline>
                <polygon stroke="#FFFFFF" points="42.7925424 38.0298305 39.1651977 49.5557062 47.2259887 45.84"></polygon>
                <line x1="44.8076836" y1="26.9853107" x2="47.2259887" y2="45.84" stroke="#FFFFFF"></line>
                <polyline stroke="#FFFFFF" points="44.8076836 26.8542373 51.0119774 16.2375367 35.5376271 16.2375367"></polyline>
                <polyline stroke="#FFFFFF" points="35.5376271 16.2375367 43.4641808 8.57972881 24.1181921 7.33378531"></polyline>
                <polyline stroke="#FFFFFF" points="43.4641808 8.57972881 50.9877966 16.2375367 53.2716384 30.6126554 44.8076836 26.9853107"></polyline>
                <line x1="5.17514124" y1="29.9410169" x2="14.579435" y2="51.9740113" stroke="#FFFFFF"></line>
                <line x1="14.579435" y1="51.9740113" x2="39.1651977" y2="49.5557062" stroke="#FFFFFF"></line>
                <line x1="39.1651977" y1="49.5557062" x2="39.0131073" y2="56.2619209" stroke="#FFFFFF"></line>
                <line x1="39.1651977" y1="49.5557062" x2="43.4641808" y2="54.5909605" stroke="#FFFFFF"></line>
                <line x1="39.1651977" y1="49.5557062" x2="29.1012429" y2="56.2732203" stroke="#FFFFFF"></line>
                <line x1="14.579435" y1="51.9740113" x2="18.6770621" y2="56.2732203" stroke="#FFFFFF"></line>
                <line x1="14.579435" y1="51.9740113" x2="12.6185311" y2="51.9740113" stroke="#FFFFFF"></line>
                <line x1="14.579435" y1="52.0732203" x2="14.3367232" y2="54.3303955" stroke="#FFFFFF"></line>
                <line x1="47.2259887" y1="45.7938983" x2="51.7127684" y2="44.2725424" stroke="#FFFFFF"></line>
                <line x1="47.2259887" y1="45.7938983" x2="47.2259887" y2="49.999548" stroke="#FFFFFF"></line>
                <line x1="47.2259887" y1="45.7938983" x2="49.2250847" y2="47.4101695" stroke="#FFFFFF"></line>
                <line x1="24.1181921" y1="7.34112994" x2="20.6924294" y2="3.27299435" stroke="#FFFFFF"></line>
                <line x1="24.1181921" y1="7.33378531" x2="27.0065537" y2="0.18299209" stroke="#FFFFFF"></line>
                <line x1="24.1181921" y1="7.33378531" x2="34.9331073" y2="1.92951412" stroke="#FFFFFF"></line>
                <line x1="13.2359322" y1="16.2375367" x2="15.0912994" y2="5.98845198" stroke="#FFFFFF"></line>
                <line x1="51.0119774" y1="16.2375367" x2="52.8031638" y2="11.7856723" stroke="#FFFFFF"></line>
                <line x1="51.0119774" y1="16.2375367" x2="55.2112994" y2="22.3419209" stroke="#FFFFFF"></line>
                <line x1="51.0119774" y1="16.2375367" x2="53.9841808" y2="16.612678" stroke="#FFFFFF"></line>
                <line x1="43.4641808" y1="8.57972881" x2="43.4641808" y2="6.18235028" stroke="#FFFFFF"></line>
                <line x1="43.4641808" y1="8.57972881" x2="47.2259887" y2="7.9079774" stroke="#FFFFFF"></line>
                <line x1="43.4641808" y1="8.57972881" x2="41.1132203" y2="5.01950282" stroke="#FFFFFF"></line>
                <line x1="53.2716384" y1="30.6126554" x2="47.2259887" y2="45.7938983" stroke="#FFFFFF"></line>
                <line x1="53.2716384" y1="30.6126554" x2="57.0587571" y2="30.6126554" stroke="#FFFFFF"></line>
                <line x1="53.2716384" y1="30.6126554" x2="55.7516384" y2="39.2110734" stroke="#FFFFFF"></line>
            </g>
            <path d="M4.47507345,78.1500565 C4.47507345,79.1374011 3.66899435,79.9435028 2.66137853,79.9435028 L1.75453107,79.9435028 C0.787227119,79.9032768 0.0214468701,79.1172881 0.00129472316,78.1500565 L0.00129472316,76.6989831 C0.00129472316,76.2354802 0.222968362,76.0137853 0.404336723,75.9132203 C0.510786441,75.8777401 0.976479096,75.6702825 1.33388475,75.5111864 L1.3339209,75.5111864 L1.4724,75.4497175 L1.4724,77.9082486 C1.4724,78.3312994 1.81498757,78.6738983 2.23818305,78.6738983 C2.66137853,78.6738983 3.0039548,78.3312994 3.0039548,77.8881356 L3.0039548,76.2759322 C3.0039548,75.4497175 2.37925424,74.3613559 2.37925424,74.3613559 L0.646162712,71.1168362 C-0.0400987571,69.8619209 -0.00141381695,68.9315254 0.00117855367,68.8820339 L0.00129472316,67.4291525 C0.00129472316,66.4415819 0.807380791,65.5550282 1.81498757,65.5550282 L2.72183051,65.5550282 C3.68912994,65.5751412 4.47507345,66.4616949 4.47507345,67.4291525 L4.47507345,67.9731073 C4.47507345,68.4366102 4.25340113,68.6583051 4.0720226,68.759096 C3.95111864,68.819661 3.38684746,69.0815819 3.0039548,69.2427119 L3.0039548,67.6103955 C3.0039548,67.1670056 2.66137853,66.8244068 2.23818305,66.8244068 C1.81498757,66.8244068 1.4724,67.1670056 1.4724,67.6103955 L1.4724,68.960678 C1.4724,69.7868927 2.09711638,70.8549153 2.09711638,70.8549153 L3.83019209,74.119548 C4.51647458,75.3744633 4.47778531,76.3050847 4.47518644,76.3543503 L4.47507345,78.1500565 Z M16.5865085,78.1500565 C16.5865085,79.1172881 15.8207232,79.9032768 14.8534237,79.9435028 L13.9667345,79.9435028 C12.9591186,79.9435028 12.1530395,79.1374011 12.1530395,78.1500565 L12.1530395,67.3484746 C12.1530395,66.360904 12.9591186,65.5550282 13.9667345,65.5550282 L14.8534237,65.5550282 C15.8207232,65.5751412 16.5865085,66.3812429 16.5865085,67.3484746 L16.5865085,69.5046328 C16.5865085,69.9681356 16.3849944,70.1898305 16.2036158,70.2705085 L15.1557062,70.7541243 L15.1557062,67.5902825 C15.1557062,67.1670056 14.8131299,66.8244068 14.3697853,66.8244068 C13.9465763,66.8244068 13.604,67.1670056 13.604,67.5902825 L13.604,77.8881356 C13.604,78.3312994 13.9465763,78.6738983 14.3697853,78.6738983 C14.8131299,78.6738983 15.1557062,78.3312994 15.1557062,77.8881356 L15.1557062,75.9936723 C15.1557062,75.5301695 15.3572203,75.3084746 15.5385989,75.2076836 C15.6139887,75.1701695 15.8616949,75.0619209 16.1254689,74.9466667 C16.2847684,74.8770621 16.4499209,74.8049718 16.5865085,74.7441808 L16.5865085,78.1500565 Z M25.4736723,79.8024859 L25.4736723,73.3335593 L27.0454237,73.3335593 C27.2268927,73.3335593 27.3679096,73.4748023 27.3880226,73.6560452 L27.3880226,79.8024859 L28.839096,79.8024859 L28.839096,66.260339 C28.839096,66.0183051 28.6978531,65.6960452 28.2546893,65.6960452 L27.3880226,65.6960452 L27.3880226,71.9028249 L25.9774011,71.9028249 C25.6348023,71.9028249 25.4736723,71.8020339 25.4736723,71.399096 L25.4736723,65.6960452 L24.6070056,65.6960452 C24.1636158,65.6960452 24.0225989,66.0183051 24.0225989,66.260339 L24.0225989,79.8024859 L25.4736723,79.8024859 Z M40.8899435,79.419661 C40.7891525,79.600904 40.5674576,79.8024859 40.1039548,79.8024859 L36.879774,79.8024859 L36.879774,66.0989831 C36.899887,65.8772881 37.0811299,65.6960452 37.3231638,65.6960452 L41.0915254,65.6960452 L40.6079096,66.7439548 C40.5272316,66.9251977 40.3055367,67.1468927 39.8420339,67.1468927 L38.6732203,67.1468927 C38.4716384,67.1468927 38.3306215,67.2879096 38.3306215,67.4894915 L38.3306215,71.6811299 L40.5071186,71.6811299 C40.4329944,71.8481356 40.3416949,72.0619209 40.2589831,72.2558192 C40.1618079,72.4836158 40.0761582,72.6838418 40.0436158,72.7491525 C39.9428249,72.9306215 39.7412429,73.1322034 39.2777401,73.1322034 L38.6732203,73.1322034 C38.4919774,73.1322034 38.3306215,73.2933333 38.3306215,73.4748023 L38.3306215,78.3717514 L41.3534463,78.3717514 C41.2928814,78.5082486 41.220565,78.6734463 41.1511864,78.8325424 C41.0359322,79.0964972 40.9276836,79.3441808 40.8899435,79.419661 Z M49.0718644,79.8024859 L49.0718644,72.5274576 L49.9181921,76.2153672 L49.9215819,76.2287006 L49.9272316,76.2506215 L49.9337853,76.2759322 L49.9337853,76.2761582 C50.020791,76.6171751 50.2112994,77.3640678 51.0063277,77.3640678 L51.4497175,77.3640678 L52.5378531,72.5274576 L52.5378531,79.8024859 L53.9688136,79.8024859 L53.9688136,65.6960452 L53.0820339,65.6960452 C52.5884746,65.6960452 52.4705085,66.0892655 52.4415819,66.1855367 C52.439774,66.1914124 52.4384181,66.1961582 52.4370621,66.199774 L50.8451977,74.3211299 L49.1724294,66.219887 C49.1724294,66.219887 49.0919774,65.6960452 48.5276836,65.6960452 L47.640904,65.6960452 L47.640904,79.8024859 L49.0718644,79.8024859 Z M62.6946893,70.0890395 L61.4250847,79.8024859 L59.8329944,79.8024859 L61.9690395,65.6960452 L62.7550282,65.6960452 C63.359548,65.6960452 63.460339,66.0788701 63.520904,66.4616949 L65.5561582,79.8024859 L63.9642938,79.8024859 L62.6946893,70.0890395 Z M73.4357062,79.8024859 L73.4357062,73.3335593 L75.0074576,73.3335593 C75.1889266,73.3335593 75.3299435,73.4748023 75.3500565,73.6560452 L75.3500565,79.8024859 L76.8011299,79.8024859 L76.8011299,66.260339 C76.8011299,66.0183051 76.660113,65.6960452 76.2167232,65.6960452 L75.3500565,65.6960452 L75.3500565,71.9028249 L73.939435,71.9028249 C73.5968362,71.9028249 73.4357062,71.8020339 73.4357062,71.399096 L73.4357062,65.6960452 L72.5692655,65.6960452 C72.1258757,65.6960452 71.9848588,66.0183051 71.9848588,66.260339 L71.9848588,79.8024859 L73.4357062,79.8024859 Z M88.8522034,79.419661 C88.7514124,79.600904 88.5297175,79.8024859 88.0662147,79.8024859 L84.8418079,79.8024859 L84.8418079,66.0989831 C84.8619209,65.8772881 85.0433898,65.6960452 85.2851977,65.6960452 L89.0535593,65.6960452 L88.5699435,66.7439548 C88.4892655,66.9251977 88.2675706,67.1468927 87.8040678,67.1468927 L86.6352542,67.1468927 C86.4338983,67.1468927 86.2926554,67.2879096 86.2926554,67.4894915 L86.2926554,71.6811299 L88.4691525,71.6811299 C88.3950282,71.8479096 88.3039548,72.0616949 88.2212429,72.2555932 L88.2210169,72.2558192 L88.220565,72.2567232 L88.220113,72.2580791 C88.1233898,72.4849718 88.0381921,72.6840678 88.0056497,72.7491525 C87.9048588,72.9306215 87.7035028,73.1322034 87.24,73.1322034 L86.6352542,73.1322034 C86.4540113,73.1322034 86.2926554,73.2933333 86.2926554,73.4748023 L86.2926554,78.3717514 L89.3154802,78.3717514 C89.2549153,78.5082486 89.1828249,78.6734463 89.1132203,78.8327684 C88.9979661,79.0964972 88.8897175,79.3441808 88.8522034,79.419661 Z M97.779435,79.8024859 L97.779435,73.7367232 L98.5453107,73.7367232 C98.9281356,73.7367232 99.2908475,73.9584181 99.2908475,74.6436158 L99.2908475,79.8024859 L100.741921,79.8024859 L100.741921,74.3979661 C100.743955,74.3290395 100.76226,73.3439548 100.217853,73.0716384 C100.79209,72.9331073 100.743729,71.860791 100.741921,71.8232768 L100.741921,67.4693785 C100.741921,66.4818079 99.9358192,65.6960452 98.9683616,65.6960452 L96.3285876,65.6960452 L96.3285876,79.8024859 L97.779435,79.8024859 Z M97.779435,72.3663277 L98.5453107,72.3663277 C98.9281356,72.3663277 99.2908475,72.2051977 99.2908475,71.560226 L99.2908475,67.7717514 C99.2908475,67.2476836 98.9281356,67.0461017 98.5453107,67.0461017 L97.779435,67.0461017 L97.779435,72.3663277 Z M111.24113,79.9435028 C112.208362,79.9032768 112.974237,79.1374011 112.99435,78.1701695 L112.99435,67.3484746 C112.99435,66.3812429 112.208362,65.5952542 111.24113,65.5550282 L110.132655,65.5550282 C109.125198,65.5550282 108.319096,66.360904 108.319096,67.3484746 L108.319096,78.1701695 C108.339209,79.1374011 109.145311,79.9435028 110.132655,79.9435028 L111.24113,79.9435028 Z M110.535819,78.6738983 L110.757514,78.6738983 C111.180565,78.6738983 111.523164,78.3312994 111.523164,77.8881356 L111.523164,67.6103955 C111.523164,67.1670056 111.180565,66.8244068 110.757514,66.8244068 L110.535819,66.8244068 C110.112542,66.8447458 109.769944,67.1873446 109.769944,67.6103955 L109.769944,77.8881356 C109.769944,78.3111864 110.112542,78.6537853 110.535819,78.6738983 Z" id="Shape" fill="#326DE6"></path>
        </g>
    </g>
</svg>
