<svg width="103" height="104" viewBox="0 0 103 104" fill="none" xmlns="http://www.w3.org/2000/svg">
<path fill-rule="evenodd" clip-rule="evenodd" d="M51.1235 6.94836C50.58 6.67511 49.9393 6.67511 49.3958 6.94836L13.7561 24.8666C13.2426 25.1248 12.8715 25.599 12.7444 26.1595L4.07602 64.3792C3.94701 64.948 4.08312 65.5446 4.44605 66.0012L28.8538 96.7077C29.2186 97.1667 29.7729 97.4342 30.3593 97.4342H70.16C70.7463 97.4342 71.3006 97.1667 71.6655 96.7077L96.0732 66.0012C96.4362 65.5446 96.5723 64.948 96.4433 64.3792L87.7749 26.1595C87.6478 25.599 87.2767 25.1248 86.7632 24.8666L51.1235 6.94836ZM47.6681 3.5119C49.2985 2.69216 51.2207 2.69216 52.8512 3.5119L88.4909 21.4302C90.0313 22.2046 91.1446 23.6273 91.5259 25.3087L100.194 63.5284C100.581 65.2349 100.173 67.0248 99.0842 68.3946L74.6765 99.1011C73.582 100.478 71.919 101.281 70.16 101.281H30.3593C28.6002 101.281 26.9373 100.478 25.8428 99.1011L1.43506 68.3946C0.34625 67.0248 -0.0620746 65.2349 0.324959 63.5284L8.99334 25.3087C9.37469 23.6273 10.488 22.2046 12.0284 21.4302L47.6681 3.5119Z" fill="#326DE6"/>
<path fill-rule="evenodd" clip-rule="evenodd" d="M52.3897 4.99332L64.5935 62.4651L9.99988 26.8767L12.1003 23.6545L58.8981 54.161L48.6272 5.79225L52.3897 4.99332Z" fill="#326DE6"/>
<path fill-rule="evenodd" clip-rule="evenodd" d="M96.191 66.8809L61.2822 59.6794L62.0147 55.9085L96.9235 63.11L96.191 66.8809Z" fill="#326DE6"/>
<path fill-rule="evenodd" clip-rule="evenodd" d="M63.0628 59.0094L30.5205 98.8994L27.5402 96.4681L60.0824 56.578L63.0628 59.0094Z" fill="#326DE6"/>
<path fill-rule="evenodd" clip-rule="evenodd" d="M27.164 97.9883L9.18372 25.7298L12.9162 24.801L30.8965 97.0595L27.164 97.9883Z" fill="#326DE6"/>
<path fill-rule="evenodd" clip-rule="evenodd" d="M94.5568 68.686L34.2975 97.9883L32.8715 94.8147L93.1307 65.5123L94.5568 68.686Z" fill="#326DE6"/>
<path d="M68.6616 56.578C68.6616 60.7089 65.3129 64.0576 61.182 64.0576C57.0511 64.0576 53.7024 60.7089 53.7024 56.578C53.7024 52.4471 57.0511 49.0984 61.182 49.0984C65.3129 49.0984 68.6616 52.4471 68.6616 56.578Z" fill="#1D4493"/>
<path d="M102.124 65.5124C102.124 68.3292 99.8406 70.6127 97.0238 70.6127C94.207 70.6127 91.9235 68.3292 91.9235 65.5124C91.9235 62.6955 94.207 60.412 97.0238 60.412C99.8406 60.412 102.124 62.6955 102.124 65.5124Z" fill="#1D4493"/>
<path d="M35.7131 96.8953C35.7131 100.348 32.9137 103.148 29.4605 103.148C26.0073 103.148 23.2079 100.348 23.2079 96.8953C23.2079 93.442 26.0073 90.6426 29.4605 90.6426C32.9137 90.6426 35.7131 93.442 35.7131 96.8953Z" fill="#1D4493"/>
<path d="M15.8952 25.2653C15.8952 27.9412 13.7259 30.1105 11.05 30.1105C8.37409 30.1105 6.20483 27.9412 6.20483 25.2653C6.20483 22.5894 8.37409 20.4202 11.05 20.4202C13.7259 20.4202 15.8952 22.5894 15.8952 25.2653Z" fill="#1D4493"/>
<path d="M54.8084 4.99331C54.8084 7.50553 52.7718 9.54209 50.2596 9.54209C47.7474 9.54209 45.7108 7.50553 45.7108 4.99331C45.7108 2.48108 47.7474 0.444519 50.2596 0.444519C52.7718 0.444519 54.8084 2.48108 54.8084 4.99331Z" fill="#1D4493"/>
</svg>
