
<svg width="80px" height="79px" viewBox="0 0 80 79" version="1.1" xmlns="http://www.w3.org/2000/svg" xmlns:xlink="http://www.w3.org/1999/xlink">
    <g id="Page-1" stroke="none" stroke-width="1" fill="none" fill-rule="evenodd">
        <g id="Group">
            <polygon id="Path" fill="#79A5FF" points="8.05488803 15.4175444 23.5772355 15.4175444 26.5013436 6.53698842"></polygon>
            <polygon id="Path" fill="#5489F3" points="32.4512741 3.6725251 47.6908108 3.6725251 50.8040154 12.5530502"></polygon>
            <polygon id="Path" fill="#326DE6" points="26.5013436 6.53698842 26.5013436 15.4175444 23.5772355 15.4175444"></polygon>
            <polygon id="Path" fill="#79A5FF" points="26.5013436 6.53698842 40.0698069 20.709251 40.0710425 7.36043243"></polygon>
            <polygon id="Path" fill="#A8C4FF" points="32.4512741 3.6725251 47.6908108 3.6725251 40.0710425 0"></polygon>
            <polygon id="Path" fill="#326DE6" points="26.5013436 6.53698842 40.0710425 7.36247104 32.4512741 3.6725251"></polygon>
            <polygon id="Path" fill="#A8C4FF" points="26.5013436 6.53698842 26.5013436 32.5881081 40.0698069 20.709251"></polygon>
            <polygon id="Path" fill="#A8C4FF" points="8.05488803 15.4175444 20.9377606 28.1652201 26.5013436 15.4175444"></polygon>
            <polygon id="Path" fill="#79A5FF" points="26.5013436 15.4175444 26.5013436 44.6566795 20.9377606 28.1652201"></polygon>
            <polygon id="Path" fill="#79A5FF" points="20.9377606 28.1652201 8.05488803 15.4175444 5.14430888 28.1652201"></polygon>
            <polygon id="Path" fill="#5489F3" points="26.5013436 44.6566795 40.0698069 20.709251 26.5013436 32.5881081"></polygon>
            <polygon id="Path" fill="#A8C4FF" points="20.9377606 28.1652201 17.2781158 35.9589189 26.5013436 44.6566795"></polygon>
            <polygon id="Path" fill="#79A5FF" points="17.2781158 35.9589189 2.22651737 40.9485714 5.14430888 28.1652201"></polygon>
            <polygon id="Path" fill="#5489F3" points="5.14430888 28.1652201 17.2781158 35.9589189 20.9377606 28.1652201"></polygon>
            <polygon id="Path" fill="#326DE6" points="0.14787861 50.0605405 17.2781158 35.9589189 2.22651737 40.9485714"></polygon>
            <polygon id="Path" fill="#A8C4FF" points="40.0710425 20.709251 50.8040154 12.5530502 40.0710425 7.36043243"></polygon>
            <polygon id="Path" fill="#A8C4FF" points="50.8040154 12.5530502 62.8525097 10.9672587 47.6908108 3.6725251"></polygon>
            <polygon id="Path" fill="#5489F3" points="40.0698069 20.709251 50.8040154 27.6765097 62.8525097 10.9672587 50.8040154 12.5530502"></polygon>
            <polygon id="Path" fill="#2C60C8" points="38.6526641 36.1667954 50.8040154 27.6765097 40.0698069 20.709251"></polygon>
            <polygon id="Path" fill="#326DE6" points="34.9365251 38.7592278 33.2861776 52.9223166 50.8040154 37.6475676 42.2900386 33.6225483"></polygon>
            <polygon id="Path" fill="#2D55A5" points="33.2855598 52.9223166 26.5013436 60.6798456 9.59428571 48.1244788 26.5013436 44.6566795"></polygon>
            <polygon id="Path" fill="#2D55A5" points="0.14787861 50.0605405 9.59428571 48.1244788 8.61448649 60.6798456"></polygon>
            <polygon id="Path" fill="#5489F3" points="8.61448649 60.6798456 26.5013436 60.6798456 16.0130039 52.8895753"></polygon>
            <polygon id="Path" fill="#326DE6" points="9.59428571 48.1244788 8.61448649 60.6798456 16.0130039 52.8895753"></polygon>
            <polygon id="Path" fill="#234A96" points="17.786471 60.6798456 8.61448649 60.6798456 13.2700849 66.5149035"></polygon>
            <polygon id="Path" fill="#1D52BB" points="16.0130039 66.5149035 21.4399073 66.5149035 26.5013436 60.6798456 17.786471 60.6798456"></polygon>
            <polygon id="Path" fill="#326DE6" points="13.2700849 66.5149035 16.0130039 66.5149035 17.786471 60.6798456"></polygon>
            <polygon id="Path" fill="#5489F3" points="21.4399073 66.5149035 22.3028263 77.8418533 13.2700849 66.5149035"></polygon>
            <polygon id="Path" fill="#1D4493" points="21.4399073 66.5149035 33.2861776 66.5149035 33.2861776 52.9223166"></polygon>
            <polygon id="Path" fill="#234A96" points="33.2861776 66.5149035 21.4399073 66.5149035 22.3028571 77.8418533"></polygon>
            <polygon id="Path" fill="#2D55A5" points="50.8040154 27.6765097 50.8040154 37.6475676 63.4989961 27.6765097"></polygon>
            <polygon id="Path" fill="#326DE6" points="50.8040154 27.6765097 74.8827799 27.6765097 72.0846332 15.4175444"></polygon>
            <polygon id="Path" fill="#326DE6" points="50.8040154 37.6475676 57.1515058 43.8542085 63.4989961 27.6765097"></polygon>
            <polygon id="Path" fill="#2D55A5" points="33.2861776 52.9223166 57.1515058 43.8542085 50.8040154 37.6475676"></polygon>
            <polygon id="Path" fill="#1D52BB" points="57.1515058 43.8542085 74.0963707 36.4108108 74.8827799 27.6765097 63.4989961 27.6765097"></polygon>
            <polygon id="Path" fill="#12357C" points="74.0963707 36.4108108 74.8827799 27.6765097 76.8784556 36.4108108"></polygon>
            <polygon id="Path" fill="#1D52BB" points="74.0963707 36.4108108 70.0339768 43.8542085 78.7610811 44.6532819 76.8784556 36.4108108"></polygon>
            <polygon id="Path" fill="#12357C" points="70.0339768 43.8542085 57.1515058 43.8542085 74.0963707 36.4108108"></polygon>
            <polygon id="Path" fill="#1D4493" points="63.4989961 43.8542085 52.1396139 54.4021622 33.2861776 52.9223166 57.1515058 43.8542085"></polygon>
            <polygon id="Path" fill="#326DE6" points="52.1396139 54.4021622 70.0339768 43.8542085 63.4989961 43.8542085"></polygon>
            <polygon id="Path" fill="#5489F3" points="33.2861776 66.5149035 43.3757529 53.7149035 33.2861776 52.9223166"></polygon>
            <polygon id="Path" fill="#1D4493" points="42.7128958 60.6798456 52.1396139 54.4021622 43.3757529 53.7149035"></polygon>
            <polygon id="Path" fill="#1D52BB" points="42.7128958 60.6798456 43.3757529 53.7149035 33.2861776 66.5149035"></polygon>
            <polygon id="Path" fill="#12357C" points="70.0339768 43.8542085 74.0963707 52.6681081 79.9916602 50.0605405 78.7610811 44.6532819"></polygon>
            <polygon id="Path" fill="#1D4493" points="74.0963707 52.6681081 79.9916602 50.0605405 74.0963707 57.4560618"></polygon>
            <polygon id="Path" fill="#12357C" points="74.0963707 57.4560618 63.4989961 47.7121236 70.0339768 43.8542085"></polygon>
            <polygon id="Path" fill="#326DE6" points="70.0339768 43.8542085 74.0963707 52.6681081 74.0963707 57.4560618"></polygon>
            <polygon id="Path" fill="#1D4493" points="52.1396139 54.4021622 74.0963707 57.4560618 63.4989961 47.7121236"></polygon>
            <polygon id="Path" fill="#1D52BB" points="52.1396139 54.4021622 61.0866409 61.3451737 61.0866409 55.646332"></polygon>
            <polygon id="Path" fill="#12357C" points="61.0866409 61.3451737 70.9915058 61.3451737 74.0963707 57.4560618 61.0866409 55.646332"></polygon>
            <polygon id="Path" fill="#2D55A5" points="61.0866409 61.3451737 70.9915058 61.3451737 66.0392278 67.5567568"></polygon>
            <polygon id="Path" fill="#12357C" points="61.0866409 61.3451737 61.0866409 73.7742085 66.0392278 67.5567568"></polygon>
            <polygon id="Path" fill="#1D52BB" points="33.2861776 66.5149035 30.8341622 77.8418533 22.3028263 77.8418533"></polygon>
            <polygon id="Path" fill="#12357C" points="33.2855598 66.5149035 46.2677992 66.5149035 53.6339768 61.3451737 41.6407722 61.3451737"></polygon>
            <polygon id="Path" fill="#2D55A5" points="53.6339768 61.3451737 48.5192278 56.8160618 41.6407722 61.3451737"></polygon>
            <polygon id="Path" fill="#1D4493" points="53.6339768 61.3451737 52.1396139 54.4021622 48.5192278 56.8160618"></polygon>
            <polygon id="Path" fill="#234A96" points="61.0866409 61.3451737 53.6339768 61.3451737 52.1396139 54.4021622"></polygon>
            <polygon id="Path" fill="#326DE6" points="30.8341622 77.8418533 46.2677992 66.5149035 33.2861776 66.5149035"></polygon>
            <polygon id="Path" fill="#12357C" points="30.8341622 77.8418533 41.6407722 77.8418533 40.0698069 71.070888"></polygon>
            <polygon id="Path" fill="#326DE6" points="57.8366023 77.8418533 61.0866409 61.3451737 61.0866409 73.7742085"></polygon>
            <polygon id="Path" fill="#12357C" points="61.0866409 61.3451737 53.6339768 61.3451737 57.8366023 77.8418533"></polygon>
            <polygon id="Path" fill="#1D4493" points="57.8366023 77.8418533 46.2677992 66.5149035 53.6339768 61.3451737"></polygon>
            <polygon id="Path" fill="#1D4493" points="46.2677992 66.5149035 41.6407722 77.8418533 40.0698069 71.0711969"></polygon>
            <polygon id="Path" fill="#12357C" points="41.6407722 77.8418533 57.8366023 77.8418533 50.9235521 71.070888"></polygon>
            <polygon id="Path" fill="#2D55A5" points="41.6407722 77.8418533 46.2677992 66.5149035 50.9235521 71.0711969"></polygon>
            <polygon id="Path" fill="#5489F3" points="42.2900386 33.6225483 50.8040154 27.6765097 50.8040154 37.6475676"></polygon>
            <polygon id="Path" fill="#79A5FF" points="26.5013436 44.6532819 38.6526641 36.1667954 34.7493436 30.1139151"></polygon>
            <polygon id="Path" fill="#79A5FF" points="34.7493436 30.1139151 38.6526641 36.1667954 40.0710425 20.709251"></polygon>
            <polygon id="Path" fill="#2D55A5" points="50.8040154 27.6765097 62.8435521 10.9772664 65.6101931 19.1413436"></polygon>
            <polygon id="Path" fill="#5489F3" points="65.6101931 19.1413436 72.0846332 15.4175444 62.8525097 10.9772664"></polygon>
            <polygon id="Path" fill="#5489F3" points="33.2861776 52.8895753 34.9365251 38.7592278 26.5013436 44.6566795"></polygon>
            <polygon id="Path" fill="#2C60C8" points="0.14787861 50.0605405 17.2781158 35.9589189 26.5013436 44.6566795"></polygon>
            <g opacity="0.857887" transform="translate(0.308880, 0.926641)" id="Path">
                <path d="M18.0909344,23.1115058 C18.5980232,23.1115058 19.0090811,22.7004479 19.0090811,22.19339 C19.0090811,21.6863012 18.5980232,21.2752432 18.0909344,21.2752432 C17.5838764,21.2752432 17.1728185,21.6863012 17.1728185,22.19339 C17.1728185,22.7004479 17.5838764,23.1115058 18.0909344,23.1115058 Z" fill="#FFFFFF"></path>
                <path d="M7.07342085,41.8412355 C7.58047876,41.8412355 7.99153668,41.4304247 7.99153668,40.9232432 C7.99153668,40.4160618 7.58047876,40.0049421 7.07342085,40.0049421 C6.56633205,40.0049421 6.15527413,40.4160618 6.15527413,40.9232432 C6.15527413,41.4304247 6.56633205,41.8412355 7.07342085,41.8412355 Z" fill="#FFFFFF"></path>
                <path d="M29.8429961,34.6798456 C30.3500541,34.6798456 30.7610811,34.2687259 30.7610811,33.7618533 C30.7610811,33.2546718 30.3500541,32.8435521 29.8429961,32.8435521 C29.3359073,32.8435521 28.9248494,33.2546718 28.9248494,33.7618533 C28.9248494,34.2687259 29.3359073,34.6798456 29.8429961,34.6798456 Z" fill="#FFFFFF"></path>
                <path d="M43.9820849,40.9232432 C44.4892664,40.9232432 44.9003861,40.5121236 44.9003861,40.0049421 C44.9003861,39.4980695 44.4892664,39.0869498 43.9820849,39.0869498 C43.4752124,39.0869498 43.0640927,39.4980695 43.0640927,40.0049421 C43.0640927,40.5121236 43.4752124,40.9232432 43.9820849,40.9232432 Z" fill="#FFFFFF"></path>
                <path d="M22.4979768,54.5115058 C23.0050347,54.5115058 23.4160927,54.1003861 23.4160927,53.5935135 C23.4160927,53.086332 23.0050347,52.6752124 22.4979768,52.6752124 C21.990888,52.6752124 21.5798301,53.086332 21.5798301,53.5935135 C21.5798301,54.1003861 21.990888,54.5115058 22.4979768,54.5115058 Z" fill="#FFFFFF"></path>
                <path d="M36.820695,61.6728958 C37.3278764,61.6728958 37.7389961,61.2617761 37.7389961,60.7549035 C37.7389961,60.247722 37.3278764,59.8366023 36.820695,59.8366023 C36.3138224,59.8366023 35.9027027,60.247722 35.9027027,60.7549035 C35.9027027,61.2617761 36.3138224,61.6728958 36.820695,61.6728958 Z" fill="#FFFFFF"></path>
                <path d="M61.2429344,37.6179151 C61.7501158,37.6179151 62.1612355,37.2067954 62.1612355,36.6999228 C62.1612355,36.1927413 61.7501158,35.7816216 61.2429344,35.7816216 C60.7360618,35.7816216 60.3249421,36.1927413 60.3249421,36.6999228 C60.3249421,37.2067954 60.7360618,37.6179151 61.2429344,37.6179151 Z" fill="#FFFFFF"></path>
                <path d="M72.8114286,42.7595367 C73.31861,42.7595367 73.7294208,42.348417 73.7294208,41.8412355 C73.7294208,41.3343629 73.31861,40.9232432 72.8114286,40.9232432 C72.3042471,40.9232432 71.8931274,41.3343629 71.8931274,41.8412355 C71.8931274,42.348417 72.3042471,42.7595367 72.8114286,42.7595367 Z" fill="#FFFFFF"></path>
                <path d="M58.4886486,52.6752124 C58.9955212,52.6752124 59.4066409,52.2640927 59.4066409,51.7572201 C59.4066409,51.2500386 58.9955212,50.8389189 58.4886486,50.8389189 C57.9814672,50.8389189 57.5703475,51.2500386 57.5703475,51.7572201 C57.5703475,52.2640927 57.9814672,52.6752124 58.4886486,52.6752124 Z" fill="#FFFFFF"></path>
                <path d="M64.5482625,63.5091892 C65.055444,63.5091892 65.4662548,63.0980695 65.4662548,62.590888 C65.4662548,62.0840154 65.055444,61.6728958 64.5482625,61.6728958 C64.0410811,61.6728958 63.6302703,62.0840154 63.6302703,62.590888 C63.6302703,63.0980695 64.0410811,63.5091892 64.5482625,63.5091892 Z" fill="#FFFFFF"></path>
                <path d="M53.5308108,68.6508108 C54.0376834,68.6508108 54.4488031,68.2396911 54.4488031,67.7325097 C54.4488031,67.2256371 54.0376834,66.8145174 53.5308108,66.8145174 C53.0236293,66.8145174 52.6125097,67.2256371 52.6125097,67.7325097 C52.6125097,68.2396911 53.0236293,68.6508108 53.5308108,68.6508108 Z" fill="#FFFFFF"></path>
                <path d="M59.4066409,12.6448494 C59.9138224,12.6448494 60.3249421,12.2337915 60.3249421,11.7267336 C60.3249421,11.2196448 59.9138224,10.8085869 59.4066409,10.8085869 C58.8997683,10.8085869 58.4886486,11.2196448 58.4886486,11.7267336 C58.4886486,12.2337915 58.8997683,12.6448494 59.4066409,12.6448494 Z" fill="#FFFFFF"></path>
                <path d="M69.6898842,23.1115058 C70.1967568,23.1115058 70.6078764,22.7004479 70.6078764,22.19339 C70.6078764,21.6863012 70.1967568,21.2752432 69.6898842,21.2752432 C69.1827027,21.2752432 68.771583,21.6863012 68.771583,22.19339 C68.771583,22.7004479 69.1827027,23.1115058 69.6898842,23.1115058 Z" fill="#FFFFFF"></path>
                <path d="M19.9271969,71.9558301 C20.4342857,71.9558301 20.8453436,71.5450193 20.8453436,71.0378378 C20.8453436,70.5306564 20.4342857,70.1195367 19.9271969,70.1195367 C19.420139,70.1195367 19.0090811,70.5306564 19.0090811,71.0378378 C19.0090811,71.5450193 19.420139,71.9558301 19.9271969,71.9558301 Z" fill="#FFFFFF"></path>
                <path d="M32.9646332,10.8085869 C33.4718147,10.8085869 33.8826255,10.397529 33.8826255,9.89047104 C33.8826255,9.38338224 33.4718147,8.97232432 32.9646332,8.97232432 C32.4574517,8.97232432 32.0466409,9.38338224 32.0466409,9.89047104 C32.0466409,10.397529 32.4574517,10.8085869 32.9646332,10.8085869 Z" fill="#FFFFFF"></path>
                <path d="M48.5726641,23.1115058 C49.0798456,23.1115058 49.4909653,22.7004479 49.4909653,22.19339 C49.4909653,21.6863012 49.0798456,21.2752432 48.5726641,21.2752432 C48.0657915,21.2752432 47.6546718,21.6863012 47.6546718,22.19339 C47.6546718,22.7004479 48.0657915,23.1115058 48.5726641,23.1115058 Z" fill="#FFFFFF"></path>
                <line x1="18.0909344" y1="22.19339" x2="11.3888494" y2="12.6796602" stroke="#FFFFFF"></line>
                <polygon stroke="#FFFFFF" points="18.0909344 22.19339 7.07342085 40.9232432 22.4979768 53.5935135"></polygon>
                <line x1="7.07342085" y1="40.9232432" x2="1.91555521" y2="39.5885714" stroke="#FFFFFF"></line>
                <line x1="7.07342085" y1="40.9232432" x2="0.206251737" y2="47.1811583" stroke="#FFFFFF"></line>
                <line x1="7.07342085" y1="40.9232432" x2="4.73587645" y2="27.4374981" stroke="#FFFFFF"></line>
                <line x1="18.0909344" y1="22.19339" x2="5.73090347" y2="23.2189035" stroke="#FFFFFF"></line>
                <polygon stroke="#FFFFFF" points="22.4979768 53.5935135 19.9271969 71.2349035 36.820695 60.7549035"></polygon>
                <polygon stroke="#FFFFFF" points="36.820695 60.7549035 43.9820849 40.0049421 53.5308108 67.7325097"></polygon>
                <polyline stroke="#FFFFFF" points="36.820695 60.7549035 43.9820849 40.0049421 22.4979768 53.8687259"></polyline>
                <polygon stroke="#FFFFFF" points="29.8429961 33.7618533 48.5726641 22.19339 32.9745174 9.89047104"></polygon>
                <polyline stroke="#FFFFFF" points="29.8429961 33.6132819 18.0909344 22.19339 32.9646332 10.0338224"></polyline>
                <line x1="29.8429961" y1="33.7618533" x2="22.4979768" y2="53.4588417" stroke="#FFFFFF"></line>
                <line x1="29.8429961" y1="33.7618533" x2="43.9820849" y2="40.0049421" stroke="#FFFFFF"></line>
                <polygon stroke="#FFFFFF" points="48.5726641 22.19339 61.2429344 36.7042471 43.9820849 40.0049421"></polygon>
                <polyline stroke="#FFFFFF" points="61.2429344 36.6999228 58.4886486 51.7572201 43.9820849 40.2557529"></polyline>
                <polygon stroke="#FFFFFF" points="58.4886486 51.9789961 53.5308108 67.7325097 64.5482625 62.6538996"></polygon>
                <line x1="61.2429344" y1="36.8833977" x2="64.5482625" y2="62.6538996" stroke="#FFFFFF"></line>
                <polyline stroke="#FFFFFF" points="61.2429344 36.7042471 69.7229344 22.19339 48.5726641 22.19339"></polyline>
                <polyline stroke="#FFFFFF" points="48.5726641 22.19339 59.4066409 11.7267336 32.9646332 10.0237838"></polyline>
                <polyline stroke="#FFFFFF" points="59.4066409 11.7267336 69.6898842 22.19339 72.8114286 41.8412355 61.2429344 36.8833977"></polyline>
                <line x1="7.07342085" y1="40.9232432" x2="19.9271969" y2="71.0378378" stroke="#FFFFFF"></line>
                <line x1="19.9271969" y1="71.0378378" x2="53.5308108" y2="67.7325097" stroke="#FFFFFF"></line>
                <line x1="53.5308108" y1="67.7325097" x2="53.3229344" y2="76.8985328" stroke="#FFFFFF"></line>
                <line x1="53.5308108" y1="67.7325097" x2="59.4066409" y2="74.6146718" stroke="#FFFFFF"></line>
                <line x1="53.5308108" y1="67.7325097" x2="39.775444" y2="76.9139768" stroke="#FFFFFF"></line>
                <line x1="19.9271969" y1="71.0378378" x2="25.5277838" y2="76.9139768" stroke="#FFFFFF"></line>
                <line x1="19.9271969" y1="71.0378378" x2="17.2469498" y2="71.0378378" stroke="#FFFFFF"></line>
                <line x1="19.9271969" y1="71.1734363" x2="19.5952124" y2="74.2585328" stroke="#FFFFFF"></line>
                <line x1="64.5482625" y1="62.590888" x2="70.6807722" y2="60.5115058" stroke="#FFFFFF"></line>
                <line x1="64.5482625" y1="62.590888" x2="64.5482625" y2="68.3391506" stroke="#FFFFFF"></line>
                <line x1="64.5482625" y1="62.590888" x2="67.2806178" y2="64.8" stroke="#FFFFFF"></line>
                <line x1="32.9646332" y1="10.0338224" x2="28.2821622" y2="4.47351351" stroke="#FFFFFF"></line>
                <line x1="32.9646332" y1="10.0237838" x2="36.9124324" y2="0.250112741" stroke="#FFFFFF"></line>
                <line x1="32.9646332" y1="10.0237838" x2="47.7464093" y2="2.63725097" stroke="#FFFFFF"></line>
                <line x1="18.0909344" y1="22.19339" x2="20.6267799" y2="8.18498842" stroke="#FFFFFF"></line>
                <line x1="69.7229344" y1="22.19339" x2="72.1711197" y2="16.1086023" stroke="#FFFFFF"></line>
                <line x1="69.7229344" y1="22.19339" x2="75.4625483" y2="30.536834" stroke="#FFFFFF"></line>
                <line x1="69.7229344" y1="22.19339" x2="73.7853282" y2="22.7061313" stroke="#FFFFFF"></line>
                <line x1="59.4066409" y1="11.7267336" x2="59.4066409" y2="8.45000772" stroke="#FFFFFF"></line>
                <line x1="59.4066409" y1="11.7267336" x2="64.5482625" y2="10.8085869" stroke="#FFFFFF"></line>
                <line x1="59.4066409" y1="11.7267336" x2="56.1933591" y2="6.8606332" stroke="#FFFFFF"></line>
                <line x1="72.8114286" y1="41.8412355" x2="64.5482625" y2="62.590888" stroke="#FFFFFF"></line>
                <line x1="72.8114286" y1="41.8412355" x2="77.9876448" y2="41.8412355" stroke="#FFFFFF"></line>
                <line x1="72.8114286" y1="41.8412355" x2="76.2010811" y2="53.5935135" stroke="#FFFFFF"></line>
            </g>
        </g>
    </g>
</svg>
