<?xml version="1.0" encoding="UTF-8"?>
<svg width="435px" height="425px" viewBox="0 0 435 425" version="1.1" xmlns="http://www.w3.org/2000/svg" xmlns:xlink="http://www.w3.org/1999/xlink">
    <title>SchemaHero</title>
    <g id="Page-1" stroke="none" stroke-width="1" fill="none" fill-rule="evenodd">
        <g id="Logo-export" transform="translate(-150.000000, -110.000000)">
            <g id="Group-3" transform="translate(150.000000, 110.000000)">
                <g id="Group">
                    <polygon id="Path" fill="#79A5FF" points="43.0605038 83.9617742 127.593025 83.9617742 143.517336 35.599559"></polygon>
                    <polygon id="Path" fill="#5489F3" transform="translate(225.892408, 44.181108) scale(1, -1) translate(-225.892408, -44.181108) " points="175.919058 68.3622152 258.91295 68.3622152 275.865757 20"></polygon>
                    <polygon id="Path-2" fill="#326DE6" points="143.517336 35.599559 143.517336 83.9617742 127.593025 83.9617742"></polygon>
                    <polygon id="Path-3" fill="#79A5FF" points="143.517336 35.599559 217.408924 112.779703 217.416004 40.0839653"></polygon>
                    <polygon id="Path-4" fill="#A8C4FF" points="175.919058 20 258.91295 20 217.416004 0"></polygon>
                    <polygon id="Path-5" fill="#326DE6" points="143.517336 35.599559 217.416004 40.0950391 175.919058 20"></polygon>
                    <polygon id="Path-6" fill="#A8C4FF" points="143.517336 35.599559 143.517336 177.470341 217.408924 112.779703"></polygon>
                    <polygon id="Path-7" fill="#A8C4FF" points="43.0605038 83.9617742 113.218751 153.383901 143.517336 83.9617742"></polygon>
                    <polygon id="Path-8" fill="#79A5FF" points="143.517336 83.9617742 143.517336 243.19328 113.218751 153.383901"></polygon>
                    <polygon id="Path-9" fill="#79A5FF" points="113.218751 153.383901 43.0605038 83.9617742 27.2099313 153.383901"></polygon>
                    <polygon id="Path-10" fill="#5489F3" points="143.517336 243.19328 217.408924 112.779703 143.517336 177.470341"></polygon>
                    <polygon id="Path-11" fill="#A8C4FF" points="113.218751 153.383901 93.2889201 195.826942 143.517336 243.19328"></polygon>
                    <polygon id="Path-12" fill="#79A5FF" points="93.2889201 195.826942 11.3199785 223 27.2099313 153.383901"></polygon>
                    <polygon id="Path-13" fill="#5489F3" points="27.2099313 153.383901 93.2889201 195.826942 113.218751 153.383901"></polygon>
                    <polygon id="Path-14" fill="#326DE6" points="5.68434189e-14 272.622168 93.2889201 195.826942 11.3199785 223"></polygon>
                    <polygon id="Path-15" fill="#A8C4FF" points="217.416004 112.779703 275.865757 68.3622152 217.416004 40.0839653"></polygon>
                    <polygon id="Path-16" fill="#A8C4FF" points="275.865757 68.3622152 341.480772 59.7261068 258.91295 20"></polygon>
                    <polygon id="Path-17" fill="#5489F3" points="217.408924 112.779703 275.865757 150.722477 341.480772 59.7261068 275.865757 68.3622152"></polygon>
                    <polygon id="Path-18" fill="#2C60C8" points="209.691547 196.9588 275.865757 150.722477 217.408924 112.779703"></polygon>
                    <polygon id="Path-19" fill="#326DE6" points="189.454936 211.078166 180.46667 288.208045 275.865757 205.023482 229.49956 183.103292"></polygon>
                    <polygon id="Path-20" fill="#2D55A5" points="180.46313 288.208045 143.517336 330.454528 51.4437921 262.07957 143.517336 243.19328"></polygon>
                    <polygon id="Path-21" fill="#2D55A5" points="-3.55271368e-15 272.622168 51.4437921 262.07957 46.1079797 330.454528"></polygon>
                    <polygon id="Path-22" fill="#5489F3" points="46.1079797 330.454528 143.517336 330.454528 86.3993138 288.029538"></polygon>
                    <polygon id="Path-23" fill="#326DE6" points="51.4437921 262.07957 46.1079797 330.454528 86.3993138 288.029538"></polygon>
                    <polygon id="Path-24" fill="#234A96" points="96.0572536 330.454528 46.1079797 330.454528 71.4616566 362.230398"></polygon>
                    <polygon id="Path-25" fill="#1D52BB" points="86.3993138 362.230398 115.953461 362.230398 143.517336 330.454528 96.0572536 330.454528"></polygon>
                    <polygon id="Path-26" fill="#326DE6" points="71.4616566 362.230398 86.3993138 362.230398 96.0572536 330.454528"></polygon>
                    <polygon id="Path-27" fill="#5489F3" points="115.953461 362.230398 120.652851 423.916058 71.4616566 362.230398"></polygon>
                    <polygon id="Path-28" fill="#1D4493" points="115.953461 362.230398 180.46667 362.230398 180.46667 288.208045"></polygon>
                    <polygon id="Path-29" fill="#234A96" points="180.46667 362.230398 115.953461 362.230398 120.652851 423.916058"></polygon>
                    <polygon id="Path-30" fill="#2D55A5" points="275.865757 150.722477 275.865757 205.023482 345.001051 150.722477"></polygon>
                    <polygon id="Path-31" fill="#326DE6" points="275.865757 150.722477 406.996466 150.722477 391.757345 83.9617742"></polygon>
                    <polygon id="Path-32" fill="#326DE6" points="275.865757 205.023482 310.433404 238.824505 345.001051 150.722477"></polygon>
                    <polygon id="Path-33" fill="#2D55A5" points="180.46667 288.208045 310.433404 238.824505 275.865757 205.023482"></polygon>
                    <polygon id="Path-34" fill="#1D52BB" points="310.433404 238.824505 402.713432 198.28859 406.996466 150.722477 345.001051 150.722477"></polygon>
                    <polygon id="Path-35" fill="#12357C" points="402.713432 198.28859 406.996466 150.722477 417.863291 198.28859"></polygon>
                    <polygon id="Path-36" fill="#1D52BB" points="402.713432 198.28859 380.589239 238.824505 428.117289 243.174742 417.863291 198.28859"></polygon>
                    <polygon id="Path-37" fill="#12357C" points="380.589239 238.824505 310.433404 238.824505 402.713432 198.28859"></polygon>
                    <polygon id="Path-38" fill="#1D4493" points="345.001051 238.824505 283.139141 296.267049 180.46667 288.208045 310.433404 238.824505"></polygon>
                    <polygon id="Path-39" fill="#326DE6" points="283.139141 296.267049 380.589239 238.824505 345.001051 238.824505"></polygon>
                    <polygon id="Path-40" fill="#5489F3" points="180.46667 362.230398 235.412186 292.524013 180.46667 288.208045"></polygon>
                    <polygon id="Path-41" fill="#1D4493" points="231.802905 330.454528 283.139141 296.267049 235.412186 292.524013"></polygon>
                    <polygon id="Path-42" fill="#1D52BB" points="231.802905 330.454528 235.412186 292.524013 180.46667 362.230398"></polygon>
                    <polygon id="Path-43" fill="#12357C" points="380.589239 238.824505 402.713432 286.823904 434.817849 272.622168 428.117289 243.174742"></polygon>
                    <polygon id="Path-44" fill="#1D4493" points="402.713432 286.823904 434.817849 272.622168 402.713432 312.89846"></polygon>
                    <polygon id="Path-45" fill="#12357C" points="402.713432 312.89846 345.001051 259.833603 380.589239 238.824505"></polygon>
                    <polygon id="Path-46" fill="#326DE6" points="380.589239 238.824505 402.713432 286.823904 402.713432 312.89846"></polygon>
                    <polygon id="Path-47" fill="#1D4493" points="283.139141 296.267049 402.713432 312.89846 345.001051 259.833603"></polygon>
                    <polygon id="Path-48" fill="#1D52BB" points="283.139141 296.267049 331.86419 334.077528 331.86419 303.04292"></polygon>
                    <polygon id="Path-49" fill="#12357C" points="331.86419 334.077528 385.805024 334.077528 402.713432 312.89846 331.86419 303.04292"></polygon>
                    <polygon id="Path-50" fill="#2D55A5" points="331.86419 334.077528 385.805024 334.077528 358.834607 367.905455"></polygon>
                    <polygon id="Path-51" fill="#12357C" points="331.86419 334.077528 331.86419 401.763528 358.834607 367.905455"></polygon>
                    <polygon id="Path-52" fill="#1D52BB" points="180.46667 362.230398 167.11322 423.916058 120.652851 423.916058"></polygon>
                    <polygon id="Path-53" fill="#12357C" points="180.46313 362.230398 251.161981 362.230398 291.277959 334.077528 225.965322 334.077528"></polygon>
                    <polygon id="Path-54" fill="#2D55A5" points="291.277959 334.077528 263.423968 309.412521 225.965322 334.077528"></polygon>
                    <polygon id="Path-55" fill="#1D4493" points="291.277959 334.077528 283.139141 296.267049 263.423968 309.412521"></polygon>
                    <polygon id="Path-56" fill="#234A96" points="331.86419 334.077528 291.277959 334.077528 283.139141 296.267049"></polygon>
                    <polygon id="Path-57" fill="#326DE6" points="167.11322 423.916058 251.161981 362.230398 180.46667 362.230398"></polygon>
                    <polygon id="Path-58" fill="#12357C" points="167.11322 423.916058 225.965322 423.916058 217.408924 387.043039"></polygon>
                    <polygon id="Path-59" fill="#326DE6" points="314.164998 423.916058 331.86419 334.077528 331.86419 401.763528"></polygon>
                    <polygon id="Path-60" fill="#12357C" points="331.86419 334.077528 291.277959 334.077528 314.164998 423.916058"></polygon>
                    <polygon id="Path-61" fill="#1D4493" points="314.164998 423.916058 251.161981 362.230398 291.277959 334.077528"></polygon>
                    <polygon id="Path-62" fill="#1D4493" points="251.161981 362.230398 225.965322 423.916058 217.408924 387.043039"></polygon>
                    <polygon id="Path-63" fill="#12357C" points="225.965322 423.916058 314.164998 423.916058 276.516835 387.043039"></polygon>
                    <polygon id="Path-64" fill="#2D55A5" points="225.965322 423.916058 251.161981 362.230398 276.516835 387.043039"></polygon>
                    <polygon id="Path-65" fill="#5489F3" points="229.49956 183.103292 275.865757 150.722477 275.865757 205.023482"></polygon>
                    <polygon id="Path-66" fill="#79A5FF" points="143.517336 243.174742 209.691547 196.9588 188.433989 163.996144"></polygon>
                    <polygon id="Path-67" fill="#79A5FF" points="188.433989 163.996144 209.691547 196.9588 217.416004 112.779703"></polygon>
                    <polygon id="Path-68" fill="#2D55A5" points="275.865757 150.722477 341.431111 59.7806666 356.498375 104.241001"></polygon>
                    <polygon id="Path-69" fill="#5489F3" points="356.498375 104.241001 391.757345 83.9617742 341.480772 59.7806666"></polygon>
                    <polygon id="Path-70" fill="#5489F3" points="180.46667 288.029538 189.454936 211.078166 143.517336 243.19328"></polygon>
                    <polygon id="Path-71" fill="#2C60C8" points="4.26325641e-14 272.622168 93.2889201 195.826942 143.517336 243.19328"></polygon>
                </g>
                <g id="Group-2" opacity="0.857886905" transform="translate(1.000000, 6.000000)" fill="#FFFFFF">
                    <path d="M200.43396,0.221177077 L201.361172,0.595712639 L181.963648,48.616262 C182.821694,49.1303497 183.512782,49.8944395 183.936241,50.8078633 L259.674066,12.9611782 L260.121067,13.8557115 L184.265277,51.7609886 C184.351798,52.1294404 184.397566,52.5135978 184.397566,52.9084449 C184.397566,53.0928597 184.387582,53.2749427 184.368126,53.4541828 L318.464282,62.0896434 C318.666477,60.862222 319.315681,59.7854627 320.239133,59.0321247 L305.480334,36.6839756 L306.314799,36.1329141 L321.073218,58.4804049 C321.628064,58.1885562 322.244466,57.9979366 322.897866,57.9331027 L322.897566,45.0639264 L323.897566,45.0639264 L323.898268,57.9332022 C325.962519,58.1384465 327.657327,59.599156 328.208243,61.5408824 L351.309671,57.4162311 L351.485462,58.4006586 L328.38321,62.5266958 C328.392723,62.6526993 328.397566,62.7800065 328.397566,62.9084449 C328.397566,64.1247197 327.963287,65.2395632 327.241332,66.1063717 L376.268169,116.008617 C377.124842,115.320301 378.213107,114.908445 379.397566,114.908445 C379.939989,114.908445 380.462238,114.994818 380.951309,115.154562 L392.447041,86.5848591 L393.374761,86.9581374 L381.866428,115.559493 C383.378087,116.419497 384.397566,118.044915 384.397566,119.908445 C384.397566,119.943272 384.39721,119.978017 384.396501,120.012675 L401.764684,122.204793 L401.639462,123.196922 L384.276792,121.005698 C384.046407,122.034626 383.498882,122.94377 382.742199,123.625145 L411.247021,165.062989 L410.423136,165.629748 L381.935024,124.217648 C381.545139,124.447726 381.121305,124.6264 380.672847,124.744345 L396.110562,221.916544 C396.205545,221.911169 396.301237,221.908445 396.397566,221.908445 C398.990343,221.908445 401.122185,223.88194 401.372908,226.408745 L424.587316,226.408445 L424.587316,227.408445 L401.372809,227.409147 C401.185289,229.295131 399.949783,230.872726 398.256925,231.551297 L415.336929,290.769883 L414.376095,291.047007 L397.296323,231.827888 C397.004761,231.880808 396.704391,231.908445 396.397566,231.908445 C395.919767,231.908445 395.457621,231.841426 395.020016,231.716276 L353.703396,335.470714 C354.691038,335.984937 355.485459,336.819193 355.949178,337.835998 L384.633098,328.110414 L384.954234,329.057447 L356.270406,338.783054 C356.353606,339.144769 356.397566,339.521473 356.397566,339.908445 C356.397566,340.919862 356.097259,341.861139 355.580946,342.647972 L366.591805,351.549629 L365.9631,352.327273 L354.951771,343.425209 C354.155673,344.229729 353.08837,344.765358 351.898268,344.883687 L351.897566,371.212111 L350.897566,371.212111 L350.897866,344.883787 C349.383321,344.733506 348.067564,343.907395 347.256421,342.711281 L296.126252,366.279597 C296.302091,366.790172 296.397566,367.338159 296.397566,367.908445 C296.397566,369.250567 295.868768,370.469182 295.008154,371.367307 L323.777819,405.062585 L323.017314,405.711917 L294.248429,372.016612 C293.53926,372.509665 292.696355,372.8238 291.785078,372.893651 L290.766473,417.835828 L289.766729,417.813177 L290.784996,372.871295 C289.480942,372.711995 288.331972,372.050641 287.537261,371.086409 L216.766225,418.324314 L216.211058,417.492575 L286.981469,370.255358 C286.756856,369.833592 286.590897,369.375848 286.494477,368.89301 L113.397556,385.918489 C113.395119,387.158071 112.941603,388.29178 112.192418,389.164208 L139.259501,417.563476 L138.535632,418.253414 L111.467719,389.855146 C110.620373,390.515244 109.554888,390.908445 108.397566,390.908445 L108.441221,390.907177 L107.086768,403.501729 L106.092508,403.394734 L107.446389,390.818083 C105.299864,390.404676 103.641997,388.618519 103.422324,386.409147 L93.8012998,386.408445 L93.8012998,385.408445 L103.422224,385.408745 C103.588342,383.734597 104.580233,382.303341 105.984838,381.528034 L39.8909699,226.68161 C39.4193671,226.829011 38.9177431,226.908445 38.3975662,226.908445 C37.113586,226.908445 35.942644,226.42447 35.0572147,225.628996 L1.33677865,256.357582 L0.663221353,255.618447 L34.3835107,224.890133 C33.7641068,224.057632 33.3975662,223.025844 33.3975662,221.908445 C33.3975662,221.649409 33.4172643,221.394974 33.4552443,221.146557 L10.183365,215.124168 L10.4338755,214.156054 L33.7052688,220.177568 C34.2572245,218.681763 35.5039896,217.522396 37.0540087,217.091023 L25.1750318,148.552528 L26.1603397,148.381741 L38.0407032,216.920984 C38.1585765,216.912671 38.2775778,216.908445 38.3975662,216.908445 C39.1442898,216.908445 39.8527812,217.072136 40.4891147,217.365593 L95.4440263,123.943291 C94.4359058,123.204088 93.7150584,122.096177 93.480133,120.818206 L31.1278487,125.991558 L31.0451624,124.994983 L93.398329,119.820217 C93.4238274,118.346565 94.0868663,117.028304 95.1234466,116.129434 L61.4901735,68.3860309 L62.3076866,67.8101208 L95.9404136,115.552852 C96.6660825,115.142594 97.5044801,114.908445 98.3975662,114.908445 C98.53034,114.908445 98.6619051,114.91362 98.7920707,114.92378 L111.715389,43.5316874 L112.699396,43.7098154 L99.7761146,115.100899 C100.602669,115.337471 101.341632,115.781443 101.9331,116.372911 L175.5932,56.153095 C174.847675,55.279801 174.397566,54.1466872 174.397566,52.9084449 C174.397566,51.7369458 174.800459,50.6595474 175.475244,49.8072509 L153.515114,23.7305164 L154.280019,23.0863734 L176.174708,49.0855816 C177.045021,48.3511147 178.169598,47.9084449 179.397566,47.9084449 C179.979672,47.9084449 180.538544,48.0079187 181.058111,48.1907951 L200.43396,0.221177077 Z M204.796522,332.287266 C203.950557,333.848342 202.297862,334.908445 200.397566,334.908445 C198.783147,334.908445 197.347435,334.143309 196.433275,332.955884 L113.218869,384.578913 C113.250021,384.692132 113.277291,384.806959 113.300528,384.923242 L286.397578,367.897397 C286.398665,367.394832 286.473898,366.909678 286.612918,366.452294 Z M126.624035,293.581156 C125.737651,294.979899 124.176045,295.908445 122.397566,295.908445 C122.322531,295.908445 122.247882,295.906792 122.173654,295.903521 L109.760132,381.096353 C111.106388,381.476798 112.221933,382.40697 112.848979,383.629084 L195.905008,332.105761 C195.580021,331.442552 195.397566,330.696806 195.397566,329.908445 C195.397566,329.282286 195.512666,328.683011 195.722862,328.130621 Z M41.9242215,225.452835 C41.595157,225.780264 41.2207571,226.062172 40.8112614,226.288322 L106.904321,381.13523 C107.375878,380.987861 107.877448,380.908445 108.397566,380.908445 C108.524567,380.908445 108.650462,380.91318 108.775085,380.922483 L121.185136,295.760436 C119.009565,295.218559 117.397566,293.251753 117.397566,290.908445 C117.397566,289.883636 117.705879,288.930838 118.234809,288.137745 Z M238.247104,221.775449 L202.645221,324.926177 L202.493131,325.367447 C204.145938,326.131452 205.310989,327.771267 205.392947,329.691555 L205.397566,329.908445 C205.397566,330.414948 205.322253,330.903861 205.182215,331.364596 L286.998691,365.529475 C287.511713,364.582863 288.321376,363.820474 289.303006,363.366983 L240.54402,221.776391 C240.175874,221.86276 239.792055,221.908445 239.397566,221.908445 C239.001645,221.908445 238.616472,221.862427 238.247104,221.775449 Z M319.852726,285.693395 C319.392281,285.83324 318.903706,285.908445 318.397566,285.908445 C318.175039,285.908445 317.955907,285.893908 317.741068,285.865732 L293.368246,363.31179 C294.349502,363.733028 295.168826,364.459278 295.706919,365.37124 L346.779362,341.828145 C346.533378,341.237058 346.397566,340.588612 346.397566,339.908445 C346.397566,338.285503 347.170802,336.84316 348.368969,335.929719 Z M242.14205,221.088567 C241.934955,221.224813 241.717131,221.346082 241.490119,221.450834 L290.249108,363.040969 C290.617865,362.954296 291.002361,362.908445 291.397566,362.908445 C291.745816,362.908445 292.08575,362.944048 292.413927,363.011813 L316.765747,285.636106 C314.805578,284.959648 313.397566,283.098476 313.397566,280.908445 C313.397566,279.914315 313.687696,278.987949 314.187901,278.2094 Z M332.994939,203.892469 L319.785095,276.103479 C321.871504,276.704893 323.397566,278.628454 323.397566,280.908445 C323.397566,282.806318 322.340164,284.457222 320.782354,285.304161 L349.221096,335.405732 C349.538494,335.252029 349.874603,335.130898 350.225081,335.046679 L333.406221,203.908177 C333.26203,203.908445 333.127753,203.903052 332.994939,203.892469 Z M337.245476,202.101389 C336.532229,202.959991 335.537071,203.576039 334.402013,203.807522 L351.216221,334.911177 L351.397566,334.908445 C351.875002,334.908445 352.336808,334.975362 352.774118,335.100328 L394.091181,231.345887 C392.490553,230.512252 391.397566,228.837989 391.397566,226.908445 C391.397566,226.385375 391.477886,225.881065 391.626866,225.407176 Z M235.488254,220.026001 L127.285205,289.849474 C127.35881,290.190806 127.397566,290.5451 127.397566,290.908445 C127.397566,291.534604 127.282466,292.133879 127.07227,292.686269 L196.170765,327.236259 C197.057091,325.837223 198.618865,324.908445 200.397566,324.908445 C200.793487,324.908445 201.17866,324.954462 201.548029,325.041441 L201.569221,324.980177 L211.604221,295.903177 L237.299995,221.448514 C236.590363,221.120106 235.970731,220.630218 235.488254,220.026001 Z M166.747655,185.375309 C165.887946,186.888067 164.261917,187.908445 162.397566,187.908445 C161.958282,187.908445 161.532229,187.851795 161.126314,187.745403 L124.371236,286.313075 C125.523101,286.808446 126.451514,287.72423 126.963304,288.867256 L234.945274,219.186089 C234.59513,218.503007 234.397566,217.728798 234.397566,216.908445 C234.397566,216.366194 234.483885,215.844103 234.643532,215.355165 Z M96.3040095,124.45037 L41.350098,217.872859 C42.5915042,218.782643 43.3975662,220.251411 43.3975662,221.908445 C43.3975662,222.934079 43.0887565,223.887587 42.5590449,224.681061 L118.869869,287.365091 C119.505337,286.732414 120.310011,286.269551 121.210087,286.050307 L98.5922214,124.904177 L98.3975662,124.908445 C97.650057,124.908445 96.9408605,124.744409 96.3040095,124.45037 Z M101.61636,123.734735 C101.036868,124.222726 100.344958,124.58148 99.5850457,124.766583 L122.200221,285.912177 L122.397566,285.908445 C122.746518,285.908445 123.087121,285.944192 123.415912,286.012223 L160.189353,187.395646 C158.535412,186.580171 157.397566,184.877187 157.397566,182.908445 C157.397566,181.524747 157.959634,180.272326 158.867908,179.367045 Z M328.610513,200.356661 L244.378167,216.464957 C244.391009,216.611073 244.397566,216.758993 244.397566,216.908445 C244.397566,218.288154 243.838734,219.537342 242.93507,220.442008 L314.810549,277.42515 C315.719137,276.489678 316.990474,275.908445 318.397566,275.908445 C318.533057,275.908445 318.667288,275.913834 318.800059,275.92441 L332.010037,203.713411 C330.384467,203.244835 329.099046,201.973672 328.610513,200.356661 Z M377.461841,124.519947 L336.350098,194.872859 C337.591504,195.782643 338.397566,197.251411 338.397566,198.908445 C338.397566,199.757058 338.186156,200.556293 337.813131,201.256357 L392.021075,224.488631 C392.674129,223.310031 393.789452,222.423083 395.122285,222.072545 L379.683893,124.900384 C379.589132,124.905734 379.493666,124.908445 379.397566,124.908445 C378.711247,124.908445 378.057226,124.770165 377.461841,124.519947 Z M267.293085,123.985202 C266.47603,124.566564 265.476723,124.908445 264.397566,124.908445 C264.139574,124.908445 263.886145,124.888905 263.638679,124.851225 L241.123435,212.214303 C242.594593,212.755367 243.741057,213.96828 244.19087,215.481085 L328.418957,199.374037 C328.404802,199.22074 328.397566,199.065437 328.397566,198.908445 C328.397566,197.591941 328.90637,196.394274 329.738062,195.50136 Z M260.427947,122.94895 L166.893519,180.718072 C167.216382,181.37954 167.397566,182.122834 167.397566,182.908445 C167.397566,183.450497 167.311311,183.972402 167.151776,184.461185 L235.047675,214.441235 C235.907434,212.928667 237.533357,211.908445 239.397566,211.908445 C239.655211,211.908445 239.908304,211.927932 240.155453,211.965513 L262.671348,124.602458 C261.774919,124.272693 260.999066,123.69347 260.427947,122.94895 Z M374.422224,120.408145 L269.372809,120.409147 C269.261084,121.532828 268.777339,122.547036 268.046495,123.326849 L330.489285,194.840798 C331.308686,194.2539 332.312784,193.908445 333.397566,193.908445 C334.143504,193.908445 334.85129,194.071792 335.487106,194.364667 L376.583326,124.041833 C375.393367,123.230074 374.572027,121.917872 374.422224,120.408145 Z M183.017781,56.3572329 C182.107095,57.3128968 180.82188,57.9084449 179.397566,57.9084449 C179.364748,57.9084449 179.332004,57.9081287 179.299336,57.9074992 L163.540011,178.03956 C164.683097,178.306732 165.675355,178.966058 166.367185,179.867939 L259.900645,122.096833 C259.578389,121.435863 259.397566,120.693271 259.397566,119.908445 C259.397566,118.918963 259.684989,117.996612 260.1809,117.220328 Z M176.321506,56.8505361 L102.565739,117.145882 C103.091357,117.937351 103.397566,118.887138 103.397566,119.908445 C103.397566,121.083261 102.992388,122.163443 102.31415,123.016873 L159.649091,178.730951 C160.437732,178.211035 161.382312,177.908445 162.397566,177.908445 C162.448133,177.908445 162.498525,177.909196 162.548731,177.910686 L178.307357,57.7892423 C177.571098,57.6255112 176.895981,57.2994422 176.321506,56.8505361 Z M320.166842,66.7246559 L268.323086,116.811294 C268.898929,117.540156 269.276111,118.433214 269.372908,119.408745 L374.422224,119.408745 C374.523542,118.387655 374.932046,117.45692 375.554017,116.710258 L326.527266,66.8080293 C325.670547,67.4964913 324.582165,67.9084449 323.397566,67.9084449 C322.165895,67.9084449 321.03824,67.4631013 320.166842,66.7246559 Z M184.157635,54.4431164 C184.029009,54.842381 183.851543,55.2197238 183.632276,55.5681071 L260.800921,116.43509 C261.710145,115.493798 262.985497,114.908445 264.397566,114.908445 C265.629213,114.908445 266.756849,115.353771 267.62824,116.092191 L319.47132,66.0046758 C318.798897,65.1531616 318.397566,64.0776712 318.397566,62.9084449 L318.400221,63.0861771 Z" id="Combined-Shape"></path>
                </g>
            </g>
        </g>
    </g>
</svg>