
<svg width="467px" height="65px" viewBox="0 0 467 65" version="1.1" xmlns="http://www.w3.org/2000/svg" xmlns:xlink="http://www.w3.org/1999/xlink">
    <g id="Page-1" stroke="none" stroke-width="1" fill="none" fill-rule="evenodd">
        <g id="Group">
            <polygon id="Path" fill="#79A5FF" points="6.59680632 12.6265423 19.3090277 12.6265423 21.7038419 5.35361265"></polygon>
            <polygon id="Path" fill="#5489F3" points="26.5766957 3.00769644 39.0574545 3.00769644 41.607083 10.2806008"></polygon>
            <polygon id="Path" fill="#326DE6" points="21.7038419 5.35361265 21.7038419 12.6265423 19.3090277 12.6265423"></polygon>
            <polygon id="Path" fill="#79A5FF" points="21.7038419 5.35361265 32.8160632 16.9603036 32.8170751 6.02799051"></polygon>
            <polygon id="Path" fill="#A8C4FF" points="26.5766957 3.00769644 39.0574545 3.00769644 32.8170751 0"></polygon>
            <polygon id="Path" fill="#326DE6" points="21.7038419 5.35361265 32.8170751 6.02966008 26.5766957 3.00769644"></polygon>
            <polygon id="Path" fill="#A8C4FF" points="21.7038419 5.35361265 21.7038419 26.6887589 32.8160632 16.9603036"></polygon>
            <polygon id="Path" fill="#A8C4FF" points="6.59680632 12.6265423 17.1474466 23.066536 21.7038419 12.6265423"></polygon>
            <polygon id="Path" fill="#79A5FF" points="21.7038419 12.6265423 21.7038419 36.572585 17.1474466 23.066536"></polygon>
            <polygon id="Path" fill="#79A5FF" points="17.1474466 23.066536 6.59680632 12.6265423 4.21312253 23.066536"></polygon>
            <polygon id="Path" fill="#5489F3" points="21.7038419 36.572585 32.8160632 16.9603036 21.7038419 26.6887589"></polygon>
            <polygon id="Path" fill="#A8C4FF" points="17.1474466 23.066536 14.1503241 29.4493597 21.7038419 36.572585"></polygon>
            <polygon id="Path" fill="#79A5FF" points="14.1503241 29.4493597 1.82336759 33.535747 4.21312253 23.066536"></polygon>
            <polygon id="Path" fill="#5489F3" points="4.21312253 23.066536 14.1503241 29.4493597 17.1474466 23.066536"></polygon>
            <polygon id="Path" fill="#326DE6" points="0.12116996 40.9981976 14.1503241 29.4493597 1.82336759 33.535747"></polygon>
            <polygon id="Path" fill="#A8C4FF" points="32.8170751 16.9603036 41.607083 10.2806008 32.8170751 6.02799051"></polygon>
            <polygon id="Path" fill="#A8C4FF" points="41.607083 10.2806008 51.4744664 8.98188142 39.0574545 3.00769644"></polygon>
            <polygon id="Path" fill="#5489F3" points="32.8160632 16.9603036 41.607083 22.6662957 51.4744664 8.98188142 41.607083 10.2806008"></polygon>
            <polygon id="Path" fill="#2C60C8" points="31.6554625 29.6196047 41.607083 22.6662957 32.8160632 16.9603036"></polygon>
            <polygon id="Path" fill="#326DE6" points="28.6120474 31.7427352 27.2604585 43.341913 41.607083 30.8323162 34.6343715 27.5359368"></polygon>
            <polygon id="Path" fill="#2D55A5" points="27.2599526 43.341913 21.7038419 49.6951146 7.85732806 39.4126166 21.7038419 36.572585"></polygon>
            <polygon id="Path" fill="#2D55A5" points="0.12116996 40.9981976 7.85732806 39.4126166 7.0549249 49.6951146"></polygon>
            <polygon id="Path" fill="#5489F3" points="7.0549249 49.6951146 21.7038419 49.6951146 13.1141818 43.3150988"></polygon>
            <polygon id="Path" fill="#326DE6" points="7.85732806 39.4126166 7.0549249 49.6951146 13.1141818 43.3150988"></polygon>
            <polygon id="Path" fill="#234A96" points="14.5667036 49.6951146 7.0549249 49.6951146 10.8678577 54.4738656"></polygon>
            <polygon id="Path" fill="#1D52BB" points="13.1141818 54.4738656 17.5587668 54.4738656 21.7038419 49.6951146 14.5667036 49.6951146"></polygon>
            <polygon id="Path" fill="#326DE6" points="10.8678577 54.4738656 13.1141818 54.4738656 14.5667036 49.6951146"></polygon>
            <polygon id="Path" fill="#5489F3" points="17.5587668 54.4738656 18.2652964 63.7503241 10.8678577 54.4738656"></polygon>
            <polygon id="Path" fill="#1D4493" points="17.5587668 54.4738656 27.2604585 54.4738656 27.2604585 43.341913"></polygon>
            <polygon id="Path" fill="#234A96" points="27.2604585 54.4738656 17.5587668 54.4738656 18.2652964 63.7503241"></polygon>
            <polygon id="Path" fill="#2D55A5" points="41.607083 22.6662957 41.607083 30.8323162 52.0039209 22.6662957"></polygon>
            <polygon id="Path" fill="#326DE6" points="41.607083 22.6662957 61.3269249 22.6662957 59.0353202 12.6265423"></polygon>
            <polygon id="Path" fill="#326DE6" points="41.607083 30.8323162 46.805502 35.9153834 52.0039209 22.6662957"></polygon>
            <polygon id="Path" fill="#2D55A5" points="27.2604585 43.341913 46.805502 35.9153834 41.607083 30.8323162"></polygon>
            <polygon id="Path" fill="#1D52BB" points="46.805502 35.9153834 60.6828775 29.8194466 61.3269249 22.6662957 52.0039209 22.6662957"></polygon>
            <polygon id="Path" fill="#12357C" points="60.6828775 29.8194466 61.3269249 22.6662957 62.9613281 29.8194466"></polygon>
            <polygon id="Path" fill="#1D52BB" points="60.6828775 29.8194466 57.3558893 35.9153834 64.5031462 36.5698024 62.9613281 29.8194466"></polygon>
            <polygon id="Path" fill="#12357C" points="57.3558893 35.9153834 46.805502 35.9153834 60.6828775 29.8194466"></polygon>
            <polygon id="Path" fill="#1D4493" points="52.0039209 35.9153834 42.7009012 44.5538656 27.2604585 43.341913 46.805502 35.9153834"></polygon>
            <polygon id="Path" fill="#326DE6" points="42.7009012 44.5538656 57.3558893 35.9153834 52.0039209 35.9153834"></polygon>
            <polygon id="Path" fill="#5489F3" points="27.2604585 54.4738656 35.5235415 43.9910198 27.2604585 43.341913"></polygon>
            <polygon id="Path" fill="#1D4493" points="34.9806798 49.6951146 42.7009012 44.5538656 35.5235415 43.9910198"></polygon>
            <polygon id="Path" fill="#1D52BB" points="34.9806798 49.6951146 35.5235415 43.9910198 27.2604585 54.4738656"></polygon>
            <polygon id="Path" fill="#12357C" points="57.3558893 35.9153834 60.6828775 43.1337233 65.5109565 40.9981976 64.5031462 36.5698024"></polygon>
            <polygon id="Path" fill="#1D4493" points="60.6828775 43.1337233 65.5109565 40.9981976 60.6828775 47.0549249"></polygon>
            <polygon id="Path" fill="#12357C" points="60.6828775 47.0549249 52.0039209 39.0749091 57.3558893 35.9153834"></polygon>
            <polygon id="Path" fill="#326DE6" points="57.3558893 35.9153834 60.6828775 43.1337233 60.6828775 47.0549249"></polygon>
            <polygon id="Path" fill="#1D4493" points="42.7009012 44.5538656 60.6828775 47.0549249 52.0039209 39.0749091"></polygon>
            <polygon id="Path" fill="#1D52BB" points="42.7009012 44.5538656 50.0282688 50.24 50.0282688 45.5728063"></polygon>
            <polygon id="Path" fill="#12357C" points="50.0282688 50.24 58.1400791 50.24 60.6828775 47.0549249 50.0282688 45.5728063"></polygon>
            <polygon id="Path" fill="#2D55A5" points="50.0282688 50.24 58.1400791 50.24 54.0843004 55.3271146"></polygon>
            <polygon id="Path" fill="#12357C" points="50.0282688 50.24 50.0282688 60.4190356 54.0843004 55.3271146"></polygon>
            <polygon id="Path" fill="#1D52BB" points="27.2604585 54.4738656 25.2524269 63.7503241 18.2652964 63.7503241"></polygon>
            <polygon id="Path" fill="#12357C" points="27.2599526 54.4738656 37.8920474 54.4738656 43.9247431 50.24 34.1026403 50.24"></polygon>
            <polygon id="Path" fill="#2D55A5" points="43.9247431 50.24 39.7359051 46.5307826 34.1026403 50.24"></polygon>
            <polygon id="Path" fill="#1D4493" points="43.9247431 50.24 42.7009012 44.5538656 39.7359051 46.5307826"></polygon>
            <polygon id="Path" fill="#234A96" points="50.0282688 50.24 43.9247431 50.24 42.7009012 44.5538656"></polygon>
            <polygon id="Path" fill="#326DE6" points="25.2524269 63.7503241 37.8920474 54.4738656 27.2604585 54.4738656"></polygon>
            <polygon id="Path" fill="#12357C" points="25.2524269 63.7503241 34.1026403 63.7503241 32.8160632 58.2050909"></polygon>
            <polygon id="Path" fill="#326DE6" points="47.3665771 63.7503241 50.0282688 50.24 50.0282688 60.4190356"></polygon>
            <polygon id="Path" fill="#12357C" points="50.0282688 50.24 43.9247431 50.24 47.3665771 63.7503241"></polygon>
            <polygon id="Path" fill="#1D4493" points="47.3665771 63.7503241 37.8920474 54.4738656 43.9247431 50.24"></polygon>
            <polygon id="Path" fill="#1D4493" points="37.8920474 54.4738656 34.1026403 63.7503241 32.8160632 58.2053439"></polygon>
            <polygon id="Path" fill="#12357C" points="34.1026403 63.7503241 47.3665771 63.7503241 41.7049802 58.2050909"></polygon>
            <polygon id="Path" fill="#2D55A5" points="34.1026403 63.7503241 37.8920474 54.4738656 41.7049802 58.2053439"></polygon>
            <polygon id="Path" fill="#5489F3" points="34.6343715 27.5359368 41.607083 22.6662957 41.607083 30.8323162"></polygon>
            <polygon id="Path" fill="#79A5FF" points="21.7038419 36.5698024 31.6554625 29.6196047 28.458751 24.6624632"></polygon>
            <polygon id="Path" fill="#79A5FF" points="28.458751 24.6624632 31.6554625 29.6196047 32.8170751 16.9603036"></polygon>
            <polygon id="Path" fill="#2D55A5" points="41.607083 22.6662957 51.4671304 8.99007747 53.7329328 15.6762308"></polygon>
            <polygon id="Path" fill="#5489F3" points="53.7329328 15.6762308 59.0353202 12.6265423 51.4744664 8.99007747"></polygon>
            <polygon id="Path" fill="#5489F3" points="27.2604585 43.3150988 28.6120474 31.7427352 21.7038419 36.572585"></polygon>
            <polygon id="Path" fill="#2C60C8" points="0.12116996 40.9981976 14.1503241 29.4493597 21.7038419 36.572585"></polygon>
            <g opacity="0.857887" transform="translate(0.252964, 0.758893)" id="Path">
                <path d="M14.8158735,18.9276838 C15.2312411,18.9276838 15.5679368,18.5910387 15.5679368,18.1757723 C15.5679368,17.7604806 15.2312411,17.4238356 14.8158735,17.4238356 C14.4007589,17.4238356 14.0640632,17.7604806 14.0640632,18.1757723 C14.0640632,18.5910387 14.4007589,18.9276838 14.8158735,18.9276838 Z" fill="#FFFFFF"></path>
                <path d="M5.79288538,34.2668142 C6.20825296,34.2668142 6.54494862,33.9303715 6.54494862,33.515004 C6.54494862,33.0996364 6.20825296,32.7629407 5.79288538,32.7629407 C5.37777075,32.7629407 5.0410751,33.0996364 5.0410751,33.515004 C5.0410751,33.9303715 5.37777075,34.2668142 5.79288538,34.2668142 Z" fill="#FFFFFF"></path>
                <path d="M24.440664,28.401834 C24.8557787,28.401834 25.1924743,28.0651383 25.1924743,27.6500237 C25.1924743,27.2346561 24.8557787,26.8979605 24.440664,26.8979605 C24.0252964,26.8979605 23.6886008,27.2346561 23.6886008,27.6500237 C23.6886008,28.0651383 24.0252964,28.401834 24.440664,28.401834 Z" fill="#FFFFFF"></path>
                <path d="M36.0201107,33.515004 C36.4354783,33.515004 36.7721739,33.1783083 36.7721739,32.7629407 C36.7721739,32.3478261 36.4354783,32.0111304 36.0201107,32.0111304 C35.604996,32.0111304 35.2683004,32.3478261 35.2683004,32.7629407 C35.2683004,33.1783083 35.604996,33.515004 36.0201107,33.515004 Z" fill="#FFFFFF"></path>
                <path d="M18.42517,44.643415 C18.8405375,44.643415 19.1772332,44.3067194 19.1772332,43.8916047 C19.1772332,43.4762372 18.8405375,43.1395415 18.42517,43.1395415 C18.0100553,43.1395415 17.6733597,43.4762372 17.6733597,43.8916047 C17.6733597,44.3067194 18.0100553,44.643415 18.42517,44.643415 Z" fill="#FFFFFF"></path>
                <path d="M30.1551304,50.5083953 C30.570498,50.5083953 30.9071937,50.1716996 30.9071937,49.756585 C30.9071937,49.3412174 30.570498,49.0045217 30.1551304,49.0045217 C29.7400158,49.0045217 29.4033202,49.3412174 29.4033202,49.756585 C29.4033202,50.1716996 29.7400158,50.5083953 30.1551304,50.5083953 Z" fill="#FFFFFF"></path>
                <path d="M50.1562688,30.8080316 C50.5716364,30.8080316 50.908332,30.471336 50.908332,30.0562213 C50.908332,29.6408538 50.5716364,29.3041581 50.1562688,29.3041581 C49.7411542,29.3041581 49.4044585,29.6408538 49.4044585,30.0562213 C49.4044585,30.471336 49.7411542,30.8080316 50.1562688,30.8080316 Z" fill="#FFFFFF"></path>
                <path d="M59.6305455,35.0188775 C60.045913,35.0188775 60.3823557,34.6821818 60.3823557,34.2668142 C60.3823557,33.8516996 60.045913,33.515004 59.6305455,33.515004 C59.2151779,33.515004 58.8784822,33.8516996 58.8784822,34.2668142 C58.8784822,34.6821818 59.2151779,35.0188775 59.6305455,35.0188775 Z" fill="#FFFFFF"></path>
                <path d="M47.900585,43.1395415 C48.3156996,43.1395415 48.6523953,42.8028458 48.6523953,42.3877312 C48.6523953,41.9723636 48.3156996,41.635668 47.900585,41.635668 C47.4852174,41.635668 47.1485217,41.9723636 47.1485217,42.3877312 C47.1485217,42.8028458 47.4852174,43.1395415 47.900585,43.1395415 Z" fill="#FFFFFF"></path>
                <path d="M52.8632411,52.0122688 C53.2786087,52.0122688 53.6150514,51.6755731 53.6150514,51.2602055 C53.6150514,50.8450909 53.2786087,50.5083953 52.8632411,50.5083953 C52.4478735,50.5083953 52.1114308,50.8450909 52.1114308,51.2602055 C52.1114308,51.6755731 52.4478735,52.0122688 52.8632411,52.0122688 Z" fill="#FFFFFF"></path>
                <path d="M43.840253,56.2231146 C44.2553676,56.2231146 44.5920632,55.886419 44.5920632,55.4710514 C44.5920632,55.0559368 44.2553676,54.7192411 43.840253,54.7192411 C43.4248854,54.7192411 43.0881897,55.0559368 43.0881897,55.4710514 C43.0881897,55.886419 43.4248854,56.2231146 43.840253,56.2231146 Z" fill="#FFFFFF"></path>
                <path d="M48.6523953,10.3557818 C49.0677628,10.3557818 49.4044585,10.0191368 49.4044585,9.60387036 C49.4044585,9.18857866 49.0677628,8.8519336 48.6523953,8.8519336 C48.2372806,8.8519336 47.900585,9.18857866 47.900585,9.60387036 C47.900585,10.0191368 48.2372806,10.3557818 48.6523953,10.3557818 Z" fill="#FFFFFF"></path>
                <path d="M57.074087,18.9276838 C57.4892016,18.9276838 57.8258972,18.5910387 57.8258972,18.1757723 C57.8258972,17.7604806 57.4892016,17.4238356 57.074087,17.4238356 C56.6587194,17.4238356 56.3220237,17.7604806 56.3220237,18.1757723 C56.3220237,18.5910387 56.6587194,18.9276838 57.074087,18.9276838 Z" fill="#FFFFFF"></path>
                <path d="M16.319747,58.929834 C16.7351146,58.929834 17.0718103,58.5933913 17.0718103,58.1780237 C17.0718103,57.7626561 16.7351146,57.4259605 16.319747,57.4259605 C15.9046324,57.4259605 15.5679368,57.7626561 15.5679368,58.1780237 C15.5679368,58.5933913 15.9046324,58.929834 16.319747,58.929834 Z" fill="#FFFFFF"></path>
                <path d="M26.9971225,8.8519336 C27.4124901,8.8519336 27.7489328,8.51528854 27.7489328,8.10002213 C27.7489328,7.68473043 27.4124901,7.34808538 26.9971225,7.34808538 C26.5817549,7.34808538 26.2453123,7.68473043 26.2453123,8.10002213 C26.2453123,8.51528854 26.5817549,8.8519336 26.9971225,8.8519336 Z" fill="#FFFFFF"></path>
                <path d="M39.779668,18.9276838 C40.1950356,18.9276838 40.5317312,18.5910387 40.5317312,18.1757723 C40.5317312,17.7604806 40.1950356,17.4238356 39.779668,17.4238356 C39.3645534,17.4238356 39.0278577,17.7604806 39.0278577,18.1757723 C39.0278577,18.5910387 39.3645534,18.9276838 39.779668,18.9276838 Z" fill="#FFFFFF"></path>
                <line x1="14.8158735" y1="18.1757723" x2="9.32705138" y2="10.3842909" stroke="#FFFFFF"></line>
                <polygon stroke="#FFFFFF" points="14.8158735 18.1757723 5.79288538 33.515004 18.42517 43.8916047"></polygon>
                <line x1="5.79288538" y1="33.515004" x2="1.56888538" y2="32.4219447" stroke="#FFFFFF"></line>
                <line x1="5.79288538" y1="33.515004" x2="0.168980237" y2="38.6400632" stroke="#FFFFFF"></line>
                <line x1="5.79288538" y1="33.515004" x2="3.87845059" y2="22.4705518" stroke="#FFFFFF"></line>
                <line x1="14.8158735" y1="18.1757723" x2="4.69350198" y2="19.0156395" stroke="#FFFFFF"></line>
                <polygon stroke="#FFFFFF" points="18.42517 43.8916047 16.319747 58.339415 30.1551304 49.756585"></polygon>
                <polygon stroke="#FFFFFF" points="30.1551304 49.756585 36.0201107 32.7629407 43.840253 55.4710514"></polygon>
                <polyline stroke="#FFFFFF" points="30.1551304 49.756585 36.0201107 32.7629407 18.42517 44.116996"></polyline>
                <polygon stroke="#FFFFFF" points="24.440664 27.6500237 39.779668 18.1757723 27.0052174 8.10002213"></polygon>
                <polyline stroke="#FFFFFF" points="24.440664 27.5283478 14.8158735 18.1757723 26.9971225 8.21742292"></polyline>
                <line x1="24.440664" y1="27.6500237" x2="18.42517" y2="43.7813123" stroke="#FFFFFF"></line>
                <line x1="24.440664" y1="27.6500237" x2="36.0201107" y2="32.7629407" stroke="#FFFFFF"></line>
                <polygon stroke="#FFFFFF" points="39.779668 18.1757723 50.1562688 30.0597628 36.0201107 32.7629407"></polygon>
                <polyline stroke="#FFFFFF" points="50.1562688 30.0562213 47.900585 42.3877312 36.0201107 32.9683478"></polyline>
                <polygon stroke="#FFFFFF" points="47.900585 42.5693597 43.840253 55.4710514 52.8632411 51.3118103"></polygon>
                <line x1="50.1562688" y1="30.2064822" x2="52.8632411" y2="51.3118103" stroke="#FFFFFF"></line>
                <polyline stroke="#FFFFFF" points="50.1562688 30.0597628 57.1011542 18.1757723 39.779668 18.1757723"></polyline>
                <polyline stroke="#FFFFFF" points="39.779668 18.1757723 48.6523953 9.60387036 26.9971225 8.20920158"></polyline>
                <polyline stroke="#FFFFFF" points="48.6523953 9.60387036 57.074087 18.1757723 59.6305455 34.2668142 50.1562688 30.2064822"></polyline>
                <line x1="5.79288538" y1="33.515004" x2="16.319747" y2="58.1780237" stroke="#FFFFFF"></line>
                <line x1="16.319747" y1="58.1780237" x2="43.840253" y2="55.4710514" stroke="#FFFFFF"></line>
                <line x1="43.840253" y1="55.4710514" x2="43.6700079" y2="62.9777708" stroke="#FFFFFF"></line>
                <line x1="43.840253" y1="55.4710514" x2="48.6523953" y2="61.1073518" stroke="#FFFFFF"></line>
                <line x1="43.840253" y1="55.4710514" x2="32.5749881" y2="62.990419" stroke="#FFFFFF"></line>
                <line x1="16.319747" y1="58.1780237" x2="20.906498" y2="62.990419" stroke="#FFFFFF"></line>
                <line x1="16.319747" y1="58.1780237" x2="14.1247747" y2="58.1780237" stroke="#FFFFFF"></line>
                <line x1="16.319747" y1="58.2890751" x2="16.0480632" y2="60.8156838" stroke="#FFFFFF"></line>
                <line x1="52.8632411" y1="51.2602055" x2="57.8855968" y2="49.557249" stroke="#FFFFFF"></line>
                <line x1="52.8632411" y1="51.2602055" x2="52.8632411" y2="55.9678735" stroke="#FFFFFF"></line>
                <line x1="52.8632411" y1="51.2602055" x2="55.1009644" y2="53.0694071" stroke="#FFFFFF"></line>
                <line x1="26.9971225" y1="8.21742292" x2="23.1624348" y2="3.66368379" stroke="#FFFFFF"></line>
                <line x1="26.9971225" y1="8.20920158" x2="30.2302609" y2="0.204835415" stroke="#FFFFFF"></line>
                <line x1="26.9971225" y1="8.20920158" x2="39.1029881" y2="2.15983557" stroke="#FFFFFF"></line>
                <line x1="14.8158735" y1="18.1757723" x2="16.8927115" y2="6.70327905" stroke="#FFFFFF"></line>
                <line x1="57.1011542" y1="18.1757723" x2="59.1061502" y2="13.1924996" stroke="#FFFFFF"></line>
                <line x1="57.1011542" y1="18.1757723" x2="61.8017391" y2="25.0088221" stroke="#FFFFFF"></line>
                <line x1="57.1011542" y1="18.1757723" x2="60.4281423" y2="18.5956933" stroke="#FFFFFF"></line>
                <line x1="48.6523953" y1="9.60387036" x2="48.6523953" y2="6.92032253" stroke="#FFFFFF"></line>
                <line x1="48.6523953" y1="9.60387036" x2="52.8632411" y2="8.8519336" stroke="#FFFFFF"></line>
                <line x1="48.6523953" y1="9.60387036" x2="46.0208063" y2="5.61866877" stroke="#FFFFFF"></line>
                <line x1="59.6305455" y1="34.2668142" x2="52.8632411" y2="51.2602055" stroke="#FFFFFF"></line>
                <line x1="59.6305455" y1="34.2668142" x2="63.8697233" y2="34.2668142" stroke="#FFFFFF"></line>
                <line x1="59.6305455" y1="34.2668142" x2="62.4065771" y2="43.8916047" stroke="#FFFFFF"></line>
            </g>
        </g>
        <path d="M104.92886,50.017057 C104.92886,53.310842 102.239778,56 98.8783678,56 L95.8531216,56 C92.6261923,55.865806 90.0715468,53.243745 90.0043192,50.017057 L90.0043192,45.176271 C90.0043192,43.630024 90.7438232,42.890449 91.3488687,42.554964 C91.7039853,42.4366018 93.2575376,41.7445225 94.449844,41.2137775 L94.4499646,41.2137775 L94.9119314,41.008717 L94.9119314,49.210385 C94.9119314,50.621684 96.0548047,51.764595 97.4665862,51.764595 C98.8783678,51.764595 100.021203,50.621684 100.021203,49.1432879 L100.021203,43.764972 C100.021203,41.008717 97.9372002,37.377939 97.9372002,37.377939 L92.155601,26.5542101 C89.8662304,22.3678085 89.9952835,19.264006 90.0039316,19.0989021 L90.0043192,14.252085 C90.0043192,10.9575461 92.693425,8 96.0548047,8 L99.0800358,8 C102.30695,8.06709702 104.92886,11.0246431 104.92886,14.252085 L104.92886,16.0667201 C104.92886,17.6129671 104.189361,18.3525421 103.584281,18.688781 C103.180945,18.890826 101.298535,19.764595 100.021203,20.3021251 L100.021203,14.8567121 C100.021203,13.3775621 98.8783678,12.2346511 97.4665862,12.2346511 C96.0548047,12.2346511 94.9119314,13.3775621 94.9119314,14.8567121 L94.9119314,19.361259 C94.9119314,22.117514 96.9959874,25.680441 96.9959874,25.680441 L102.777534,36.571267 C105.066974,40.7576686 104.937907,43.8622249 104.929237,44.0265749 L104.92886,50.017057 Z M145.332649,50.017057 C145.332649,53.243745 142.777986,55.865806 139.551072,56 L136.593074,56 C133.231664,56 130.542581,53.310842 130.542581,50.017057 L130.542581,13.982943 C130.542581,10.6884041 133.231664,8 136.593074,8 L139.551072,8 C142.777986,8.06709702 145.332649,10.756255 145.332649,13.982943 L145.332649,21.1758941 C145.332649,22.7221411 144.660397,23.4617161 144.055317,23.730858 L140.559487,25.344202 L140.559487,14.789615 C140.559487,13.3775621 139.416652,12.2346511 137.937653,12.2346511 C136.525826,12.2346511 135.38299,13.3775621 135.38299,14.789615 L135.38299,49.1432879 C135.38299,50.621684 136.525826,51.764595 137.937653,51.764595 C139.416652,51.764595 140.559487,50.621684 140.559487,49.1432879 L140.559487,42.823352 C140.559487,41.277105 141.231739,40.53753 141.836819,40.2012911 C142.088319,40.0761438 142.914668,39.7150262 143.794619,39.3305376 C144.326042,39.0983367 144.876992,38.8578429 145.332649,38.6550441 L145.332649,50.017057 Z M174.980257,55.529567 L174.980257,33.9492061 L180.223625,33.9492061 C180.829006,33.9492061 181.299439,34.420393 181.366536,35.02502 L181.366536,55.529567 L186.207322,55.529567 L186.207322,10.352919 C186.207322,9.5454931 185.736135,8.47043302 184.257739,8.47043302 L181.366536,8.47043302 L181.366536,29.176271 L176.660698,29.176271 C175.517787,29.176271 174.980257,28.840032 174.980257,27.49583 L174.980257,8.47043302 L172.089054,8.47043302 C170.609904,8.47043302 170.139471,9.5454931 170.139471,10.352919 L170.139471,55.529567 L174.980257,55.529567 Z M226.40899,54.252462 C226.072751,54.857089 225.333176,55.529567 223.786929,55.529567 L213.031051,55.529567 L213.031051,9.81463507 C213.098148,9.07506008 213.702775,8.47043302 214.510201,8.47043302 L227.081468,8.47043302 L225.468124,11.966263 C225.198982,12.5708901 224.459407,13.3104651 222.91316,13.3104651 L219.013994,13.3104651 C218.341516,13.3104651 217.871083,13.7808981 217.871083,14.4533761 L217.871083,28.436696 L225.131885,28.436696 C224.884606,28.9938275 224.580031,29.707016 224.304104,30.3538614 C223.979927,31.1137916 223.6942,31.7817462 223.585638,31.9996231 C223.249399,32.605004 222.576921,33.277482 221.030674,33.277482 L219.013994,33.277482 C218.409367,33.277482 217.871083,33.815012 217.871083,34.420393 L217.871083,50.756632 L227.955237,50.756632 C227.753192,51.211987 227.511945,51.7630872 227.280498,52.2938322 C226.896009,53.1743863 226.534891,54.0006597 226.40899,54.252462 Z M253.703906,55.529567 L253.703906,31.2600481 L256.527258,43.562927 L256.538567,43.6074071 L256.557414,43.6805353 L256.579277,43.764972 L256.579277,43.7657259 C256.869528,44.9033596 257.505065,47.394996 260.157282,47.394996 L261.636432,47.394996 L265.266456,31.2600481 L265.266456,55.529567 L270.040145,55.529567 L270.040145,8.47043302 L267.081845,8.47043302 C265.43533,8.47043302 265.041794,9.78221741 264.945295,10.1033784 C264.939264,10.1229798 264.934741,10.1388117 264.930217,10.1508741 L259.619752,37.243745 L254.039391,10.2179711 C254.039391,10.2179711 253.771003,8.47043302 251.888517,8.47043302 L248.930217,8.47043302 L248.930217,55.529567 L253.703906,55.529567 Z M299.149696,23.1254771 L294.914291,55.529567 L289.603072,55.529567 L296.728926,8.47043302 L299.350987,8.47043302 C301.367667,8.47043302 301.703906,9.74753805 301.905951,11.0246431 L308.695566,55.529567 L303.385101,55.529567 L299.149696,23.1254771 Z M334.981765,55.529567 L334.981765,33.9492061 L340.225133,33.9492061 C340.830514,33.9492061 341.300947,34.420393 341.368044,35.02502 L341.368044,55.529567 L346.20883,55.529567 L346.20883,10.352919 C346.20883,9.5454931 345.738397,8.47043302 344.259247,8.47043302 L341.368044,8.47043302 L341.368044,29.176271 L336.662206,29.176271 C335.519295,29.176271 334.981765,28.840032 334.981765,27.49583 L334.981765,8.47043302 L332.091316,8.47043302 C330.612166,8.47043302 330.141733,9.5454931 330.141733,10.352919 L330.141733,55.529567 L334.981765,55.529567 Z M386.411252,54.252462 C386.075013,54.857089 385.335438,55.529567 383.789191,55.529567 L373.032559,55.529567 L373.032559,9.81463507 C373.099656,9.07506008 373.705037,8.47043302 374.511709,8.47043302 L387.082976,8.47043302 L385.469632,11.966263 C385.20049,12.5708901 384.460915,13.3104651 382.914668,13.3104651 L379.015502,13.3104651 C378.343778,13.3104651 377.872591,13.7808981 377.872591,14.4533761 L377.872591,28.436696 L385.133393,28.436696 C384.886114,28.9930736 384.582293,29.7062621 384.306366,30.3531075 L384.305612,30.3538614 L384.304104,30.356877 L384.302596,30.3614004 C383.979927,31.118315 383.695707,31.7825001 383.587146,31.9996231 C383.250907,32.605004 382.579183,33.277482 381.032936,33.277482 L379.015502,33.277482 C378.410875,33.277482 377.872591,33.815012 377.872591,34.420393 L377.872591,50.756632 L387.956745,50.756632 C387.7547,51.211987 387.514206,51.7630872 387.282005,52.2945861 C386.897517,53.1743863 386.536399,54.0006597 386.411252,54.252462 Z M416.192527,55.529567 L416.192527,35.294162 L418.747491,35.294162 C420.024596,35.294162 421.234604,36.033737 421.234604,38.319559 L421.234604,55.529567 L426.07539,55.529567 L426.07539,37.5000707 C426.082175,37.2701315 426.143241,33.9838854 424.327098,33.075437 C426.242755,32.6132969 426.081421,29.0360458 426.07539,28.9108986 L426.07539,14.386279 C426.07539,11.0917401 423.386232,8.47043302 420.15879,8.47043302 L411.352495,8.47043302 L411.352495,55.529567 L416.192527,55.529567 Z M416.192527,30.722518 L418.747491,30.722518 C420.024596,30.722518 421.234604,30.184988 421.234604,28.03336 L421.234604,15.394996 C421.234604,13.646704 420.024596,12.9742261 418.747491,12.9742261 L416.192527,12.9742261 L416.192527,30.722518 Z M461.100787,56 C464.327475,55.865806 466.882439,53.310842 466.949536,50.084154 L466.949536,13.982943 C466.949536,10.756255 464.327475,8.13419403 461.100787,8 L457.402912,8 C454.04203,8 451.352872,10.6884041 451.352872,13.982943 L451.352872,50.084154 C451.419969,53.310842 454.109127,56 457.402912,56 L461.100787,56 Z M458.747868,51.764595 L459.487443,51.764595 C460.898742,51.764595 462.041653,50.621684 462.041653,49.1432879 L462.041653,14.8567121 C462.041653,13.3775621 460.898742,12.2346511 459.487443,12.2346511 L458.747868,12.2346511 C457.335815,12.302502 456.192904,13.445413 456.192904,14.8567121 L456.192904,49.1432879 C456.192904,50.554587 457.335815,51.697498 458.747868,51.764595 Z" id="Shape" fill="#326DE6"></path>
    </g>
</svg>
