<svg width="191" height="160" viewBox="0 0 191 160" fill="none" xmlns="http://www.w3.org/2000/svg">
<path d="M9.68202 151.547C7.47002 151.547 5.67802 150.861 4.30602 149.489C2.96202 148.089 2.29002 146.269 2.29002 144.029V142.937C2.29002 142.657 2.43002 142.517 2.71002 142.517H5.81802C6.09802 142.517 6.23802 142.657 6.23802 142.937V143.819C6.23802 145.107 6.56002 146.143 7.20402 146.927C7.84802 147.683 8.67402 148.061 9.68202 148.061C10.69 148.061 11.516 147.697 12.16 146.969C12.832 146.213 13.168 145.233 13.168 144.029C13.168 143.217 12.986 142.503 12.622 141.887C12.286 141.271 11.824 140.725 11.236 140.249C10.676 139.745 9.75202 139.017 8.46402 138.065C7.03602 137.001 5.91602 136.091 5.10402 135.335C4.29202 134.579 3.60602 133.669 3.04602 132.605C2.48602 131.541 2.20602 130.295 2.20602 128.867C2.20602 126.599 2.87802 124.807 4.22202 123.491C5.56602 122.147 7.31602 121.475 9.47202 121.475C11.712 121.475 13.504 122.189 14.848 123.617C16.22 125.045 16.906 126.921 16.906 129.245V130.295C16.906 130.575 16.766 130.715 16.486 130.715H13.378C13.098 130.715 12.958 130.575 12.958 130.295V129.161C12.958 127.901 12.636 126.893 11.992 126.137C11.348 125.353 10.508 124.961 9.47202 124.961C8.49202 124.961 7.69402 125.311 7.07802 126.011C6.46202 126.683 6.15402 127.635 6.15402 128.867C6.15402 129.987 6.46202 130.939 7.07802 131.723C7.69402 132.479 8.88402 133.501 10.648 134.789C12.328 136.049 13.588 137.071 14.428 137.855C15.296 138.639 15.954 139.507 16.402 140.459C16.878 141.383 17.116 142.489 17.116 143.777C17.116 146.129 16.43 148.019 15.058 149.447C13.686 150.847 11.894 151.547 9.68202 151.547ZM27.9428 151.547C25.6748 151.547 23.8408 150.861 22.4408 149.489C21.0688 148.089 20.3828 146.241 20.3828 143.945V129.035C20.3828 126.739 21.0688 124.905 22.4408 123.533C23.8408 122.161 25.6748 121.475 27.9428 121.475C30.2388 121.475 32.0728 122.161 33.4448 123.533C34.8448 124.905 35.5448 126.739 35.5448 129.035V129.707C35.5448 129.987 35.4048 130.127 35.1248 130.127L31.9328 130.295C31.6528 130.295 31.5128 130.155 31.5128 129.875V128.783C31.5128 127.635 31.1768 126.711 30.5048 126.011C29.8608 125.311 29.0068 124.961 27.9428 124.961C26.8788 124.961 26.0248 125.311 25.3808 126.011C24.7368 126.711 24.4148 127.635 24.4148 128.783V144.239C24.4148 145.387 24.7368 146.311 25.3808 147.011C26.0248 147.711 26.8788 148.061 27.9428 148.061C29.0068 148.061 29.8608 147.711 30.5048 147.011C31.1768 146.311 31.5128 145.387 31.5128 144.239V143.147C31.5128 142.867 31.6528 142.727 31.9328 142.727L35.1248 142.895C35.4048 142.895 35.5448 143.035 35.5448 143.315V143.945C35.5448 146.241 34.8448 148.089 33.4448 149.489C32.0728 150.861 30.2388 151.547 27.9428 151.547ZM50.4611 122.231C50.4611 121.951 50.6011 121.811 50.8811 121.811H54.0731C54.3531 121.811 54.4931 121.951 54.4931 122.231V150.791C54.4931 151.071 54.3531 151.211 54.0731 151.211H50.8811C50.6011 151.211 50.4611 151.071 50.4611 150.791V138.401C50.4611 138.289 50.4051 138.233 50.2931 138.233H43.9511C43.8391 138.233 43.7831 138.289 43.7831 138.401V150.791C43.7831 151.071 43.6431 151.211 43.3631 151.211H40.1711C39.8911 151.211 39.7511 151.071 39.7511 150.791V122.231C39.7511 121.951 39.8911 121.811 40.1711 121.811H43.3631C43.6431 121.811 43.7831 121.951 43.7831 122.231V134.579C43.7831 134.691 43.8391 134.747 43.9511 134.747H50.2931C50.4051 134.747 50.4611 134.691 50.4611 134.579V122.231ZM73.2986 124.877C73.2986 125.157 73.1586 125.297 72.8786 125.297H63.4286C63.3166 125.297 63.2606 125.353 63.2606 125.465V134.579C63.2606 134.691 63.3166 134.747 63.4286 134.747H69.2246C69.5046 134.747 69.6446 134.887 69.6446 135.167V137.813C69.6446 138.093 69.5046 138.233 69.2246 138.233H63.4286C63.3166 138.233 63.2606 138.289 63.2606 138.401V147.557C63.2606 147.669 63.3166 147.725 63.4286 147.725H72.8786C73.1586 147.725 73.2986 147.865 73.2986 148.145V150.791C73.2986 151.071 73.1586 151.211 72.8786 151.211H59.6486C59.3686 151.211 59.2286 151.071 59.2286 150.791V122.231C59.2286 121.951 59.3686 121.811 59.6486 121.811H72.8786C73.1586 121.811 73.2986 121.951 73.2986 122.231V124.877ZM90.2095 122.105C90.3215 121.909 90.4895 121.811 90.7135 121.811H93.9055C94.1855 121.811 94.3255 121.951 94.3255 122.231V150.791C94.3255 151.071 94.1855 151.211 93.9055 151.211H90.7135C90.4335 151.211 90.2935 151.071 90.2935 150.791V129.959C90.2935 129.875 90.2655 129.833 90.2095 129.833C90.1815 129.833 90.1395 129.861 90.0835 129.917L86.0515 137.435C85.9675 137.631 85.8415 137.729 85.6735 137.729C85.5055 137.729 85.3795 137.631 85.2955 137.435L81.3055 129.959C81.2495 129.903 81.1935 129.875 81.1375 129.875C81.1095 129.875 81.0955 129.917 81.0955 130.001V150.791C81.0955 151.071 80.9555 151.211 80.6755 151.211H77.4835C77.2035 151.211 77.0635 151.071 77.0635 150.791V122.231C77.0635 121.951 77.2035 121.811 77.4835 121.811H80.6755C80.8715 121.811 81.0395 121.909 81.1795 122.105L85.5895 130.001C85.6175 130.029 85.6595 130.043 85.7155 130.043C85.7715 130.043 85.8135 130.029 85.8415 130.001L90.2095 122.105ZM110.717 151.211C110.465 151.211 110.311 151.085 110.255 150.833L109.331 146.003C109.331 145.947 109.303 145.905 109.247 145.877C109.219 145.849 109.177 145.835 109.121 145.835H102.275C102.219 145.835 102.163 145.849 102.107 145.877C102.079 145.905 102.065 145.947 102.065 146.003L101.183 150.833C101.155 151.085 101.001 151.211 100.721 151.211H97.529C97.389 151.211 97.277 151.169 97.193 151.085C97.137 151.001 97.123 150.889 97.151 150.749L103.409 122.189C103.465 121.937 103.619 121.811 103.871 121.811H107.609C107.889 121.811 108.043 121.937 108.071 122.189L114.371 150.749V150.833C114.371 151.085 114.245 151.211 113.993 151.211H110.717ZM102.779 142.475C102.779 142.587 102.821 142.643 102.905 142.643H108.491C108.575 142.643 108.617 142.587 108.617 142.475L105.761 127.565C105.733 127.509 105.705 127.481 105.677 127.481C105.649 127.481 105.621 127.509 105.593 127.565L102.779 142.475Z" fill="#326DE6"/>
<path d="M128.002 122.231C128.002 121.951 128.142 121.811 128.422 121.811H131.614C131.894 121.811 132.034 121.951 132.034 122.231V150.791C132.034 151.071 131.894 151.211 131.614 151.211H128.422C128.142 151.211 128.002 151.071 128.002 150.791V138.401C128.002 138.289 127.946 138.233 127.834 138.233H121.492C121.38 138.233 121.324 138.289 121.324 138.401V150.791C121.324 151.071 121.184 151.211 120.904 151.211H117.712C117.432 151.211 117.292 151.071 117.292 150.791V122.231C117.292 121.951 117.432 121.811 117.712 121.811H120.904C121.184 121.811 121.324 121.951 121.324 122.231V134.579C121.324 134.691 121.38 134.747 121.492 134.747H127.834C127.946 134.747 128.002 134.691 128.002 134.579V122.231ZM150.839 124.877C150.839 125.157 150.699 125.297 150.419 125.297H140.969C140.857 125.297 140.801 125.353 140.801 125.465V134.579C140.801 134.691 140.857 134.747 140.969 134.747H146.765C147.045 134.747 147.185 134.887 147.185 135.167V137.813C147.185 138.093 147.045 138.233 146.765 138.233H140.969C140.857 138.233 140.801 138.289 140.801 138.401V147.557C140.801 147.669 140.857 147.725 140.969 147.725H150.419C150.699 147.725 150.839 147.865 150.839 148.145V150.791C150.839 151.071 150.699 151.211 150.419 151.211H137.189C136.909 151.211 136.769 151.071 136.769 150.791V122.231C136.769 121.951 136.909 121.811 137.189 121.811H150.419C150.699 121.811 150.839 121.951 150.839 122.231V124.877ZM166.364 151.211C166.112 151.211 165.944 151.099 165.86 150.875L161.996 138.359C161.968 138.275 161.912 138.233 161.828 138.233H158.888C158.776 138.233 158.72 138.289 158.72 138.401V150.791C158.72 151.071 158.58 151.211 158.3 151.211H155.108C154.828 151.211 154.688 151.071 154.688 150.791V122.231C154.688 121.951 154.828 121.811 155.108 121.811H162.626C164.054 121.811 165.314 122.161 166.406 122.861C167.498 123.561 168.338 124.555 168.926 125.843C169.542 127.103 169.85 128.545 169.85 130.169C169.85 131.933 169.486 133.473 168.758 134.789C168.03 136.077 167.036 137.015 165.776 137.603C165.692 137.687 165.664 137.771 165.692 137.855L169.976 150.749L170.018 150.917C170.018 151.113 169.892 151.211 169.64 151.211H166.364ZM158.888 125.297C158.776 125.297 158.72 125.353 158.72 125.465V134.873C158.72 134.985 158.776 135.041 158.888 135.041H161.996C163.144 135.041 164.068 134.607 164.768 133.739C165.468 132.843 165.818 131.667 165.818 130.211C165.818 128.699 165.468 127.509 164.768 126.641C164.068 125.745 163.144 125.297 161.996 125.297H158.888ZM180.566 151.547C178.27 151.547 176.422 150.847 175.022 149.447C173.622 148.047 172.922 146.185 172.922 143.861V129.203C172.922 126.879 173.622 125.017 175.022 123.617C176.422 122.189 178.27 121.475 180.566 121.475C182.89 121.475 184.752 122.189 186.152 123.617C187.58 125.017 188.294 126.879 188.294 129.203V143.861C188.294 146.185 187.58 148.047 186.152 149.447C184.752 150.847 182.89 151.547 180.566 151.547ZM180.566 148.061C181.686 148.061 182.582 147.697 183.254 146.969C183.926 146.213 184.262 145.233 184.262 144.029V128.993C184.262 127.789 183.926 126.823 183.254 126.095C182.582 125.339 181.686 124.961 180.566 124.961C179.474 124.961 178.592 125.339 177.92 126.095C177.276 126.823 176.954 127.789 176.954 128.993V144.029C176.954 145.233 177.276 146.213 177.92 146.969C178.592 147.697 179.474 148.061 180.566 148.061Z" fill="#1D4493"/>
<path fill-rule="evenodd" clip-rule="evenodd" d="M95.1235 6.94836C94.58 6.67511 93.9393 6.67511 93.3958 6.94836L57.7561 24.8666C57.2426 25.1248 56.8715 25.599 56.7444 26.1595L48.076 64.3792C47.947 64.948 48.0831 65.5446 48.4461 66.0012L72.8538 96.7077C73.2186 97.1667 73.7729 97.4342 74.3593 97.4342H114.16C114.746 97.4342 115.301 97.1667 115.665 96.7077L140.073 66.0012C140.436 65.5446 140.572 64.948 140.443 64.3792L131.775 26.1595C131.648 25.599 131.277 25.1248 130.763 24.8666L95.1235 6.94836ZM91.6681 3.5119C93.2985 2.69216 95.2207 2.69216 96.8512 3.5119L132.491 21.4302C134.031 22.2046 135.145 23.6273 135.526 25.3087L144.194 63.5284C144.581 65.2349 144.173 67.0248 143.084 68.3946L118.676 99.1011C117.582 100.478 115.919 101.281 114.16 101.281H74.3593C72.6002 101.281 70.9373 100.478 69.8428 99.1011L45.4351 68.3946C44.3462 67.0248 43.9379 65.2349 44.325 63.5284L52.9933 25.3087C53.3747 23.6273 54.488 22.2046 56.0284 21.4302L91.6681 3.5119Z" fill="#326DE6"/>
<path fill-rule="evenodd" clip-rule="evenodd" d="M96.3897 4.99332L108.594 62.4651L53.9999 26.8767L56.1003 23.6545L102.898 54.161L92.6272 5.79225L96.3897 4.99332Z" fill="#326DE6"/>
<path fill-rule="evenodd" clip-rule="evenodd" d="M140.191 66.8809L105.282 59.6794L106.015 55.9085L140.924 63.11L140.191 66.8809Z" fill="#326DE6"/>
<path fill-rule="evenodd" clip-rule="evenodd" d="M107.063 59.0094L74.5205 98.8994L71.5402 96.4681L104.082 56.578L107.063 59.0094Z" fill="#326DE6"/>
<path fill-rule="evenodd" clip-rule="evenodd" d="M71.164 97.9883L53.1837 25.7298L56.9162 24.801L74.8965 97.0595L71.164 97.9883Z" fill="#326DE6"/>
<path fill-rule="evenodd" clip-rule="evenodd" d="M138.557 68.686L78.2975 97.9883L76.8715 94.8147L137.131 65.5123L138.557 68.686Z" fill="#326DE6"/>
<path d="M112.662 56.578C112.662 60.7089 109.313 64.0576 105.182 64.0576C101.051 64.0576 97.7024 60.7089 97.7024 56.578C97.7024 52.4471 101.051 49.0984 105.182 49.0984C109.313 49.0984 112.662 52.4471 112.662 56.578Z" fill="#1D4493"/>
<path d="M146.124 65.5124C146.124 68.3292 143.841 70.6127 141.024 70.6127C138.207 70.6127 135.923 68.3292 135.923 65.5124C135.923 62.6955 138.207 60.412 141.024 60.412C143.841 60.412 146.124 62.6955 146.124 65.5124Z" fill="#1D4493"/>
<path d="M79.7131 96.8953C79.7131 100.348 76.9137 103.148 73.4605 103.148C70.0073 103.148 67.2079 100.348 67.2079 96.8953C67.2079 93.442 70.0073 90.6426 73.4605 90.6426C76.9137 90.6426 79.7131 93.442 79.7131 96.8953Z" fill="#1D4493"/>
<path d="M59.8952 25.2653C59.8952 27.9412 57.7259 30.1105 55.05 30.1105C52.3741 30.1105 50.2048 27.9412 50.2048 25.2653C50.2048 22.5894 52.3741 20.4202 55.05 20.4202C57.7259 20.4202 59.8952 22.5894 59.8952 25.2653Z" fill="#1D4493"/>
<path d="M98.8084 4.99331C98.8084 7.50553 96.7718 9.54209 94.2596 9.54209C91.7474 9.54209 89.7108 7.50553 89.7108 4.99331C89.7108 2.48108 91.7474 0.444519 94.2596 0.444519C96.7718 0.444519 98.8084 2.48108 98.8084 4.99331Z" fill="#1D4493"/>
</svg>
