<?xml version="1.0" encoding="UTF-8"?>
<svg width="261px" height="48px" viewBox="0 0 1107 201" version="1.1" xmlns="http://www.w3.org/2000/svg" xmlns:xlink="http://www.w3.org/1999/xlink">
    <title>SchemaHero</title>
    <g id="Page-1" stroke="none" stroke-width="1" fill="none" fill-rule="evenodd">
        <g id="Logo/Wordmark-Horizontal-export" transform="translate(-35.000000, -42.000000)">
            <g id="Group-5" transform="translate(34.000000, 42.000000)">
                <g id="Group-3-Copy-4">
                    <g id="Group" transform="translate(1.000000, 0.000000)">
                        <polygon id="Path" fill="#79A5FF" points="20.3115584 39.6046105 60.1853891 39.6046105 67.6968568 16.7922448"></polygon>
                        <polygon id="Path" fill="#5489F3" transform="translate(106.553023, 20.840145) scale(1, -1) translate(-106.553023, -20.840145) " points="82.980688 32.2463279 122.12875 32.2463279 130.125357 9.43396226"></polygon>
                        <polygon id="Path-2" fill="#326DE6" points="67.6968568 16.7922448 67.6968568 39.6046105 60.1853891 39.6046105"></polygon>
                        <polygon id="Path-3" fill="#79A5FF" points="67.6968568 16.7922448 102.551379 53.1979731 102.554719 18.9075308"></polygon>
                        <polygon id="Path-4" fill="#A8C4FF" points="82.980688 9.43396226 122.12875 9.43396226 102.554719 0"></polygon>
                        <polygon id="Path-5" fill="#326DE6" points="67.6968568 16.7922448 102.554719 18.9127543 82.980688 9.43396226"></polygon>
                        <polygon id="Path-6" fill="#A8C4FF" points="67.6968568 16.7922448 67.6968568 83.7124252 102.551379 53.1979731"></polygon>
                        <polygon id="Path-7" fill="#A8C4FF" points="20.3115584 39.6046105 53.4050711 72.3508968 67.6968568 39.6046105"></polygon>
                        <polygon id="Path-8" fill="#79A5FF" points="67.6968568 39.6046105 67.6968568 114.713811 53.4050711 72.3508968"></polygon>
                        <polygon id="Path-9" fill="#79A5FF" points="53.4050711 72.3508968 20.3115584 39.6046105 12.8348733 72.3508968"></polygon>
                        <polygon id="Path-10" fill="#5489F3" points="67.6968568 114.713811 102.551379 53.1979731 67.6968568 83.7124252"></polygon>
                        <polygon id="Path-11" fill="#A8C4FF" points="53.4050711 72.3508968 44.0042076 92.3711991 67.6968568 114.713811"></polygon>
                        <polygon id="Path-12" fill="#79A5FF" points="44.0042076 92.3711991 5.3396125 105.188679 12.8348733 72.3508968"></polygon>
                        <polygon id="Path-13" fill="#5489F3" points="12.8348733 72.3508968 44.0042076 92.3711991 53.4050711 72.3508968"></polygon>
                        <polygon id="Path-14" fill="#326DE6" points="2.68129334e-14 128.595362 44.0042076 92.3711991 5.3396125 105.188679"></polygon>
                        <polygon id="Path-15" fill="#A8C4FF" points="102.554719 53.1979731 130.125357 32.2463279 102.554719 18.9075308"></polygon>
                        <polygon id="Path-16" fill="#A8C4FF" points="130.125357 32.2463279 161.075836 28.1726919 122.12875 9.43396226"></polygon>
                        <polygon id="Path-17" fill="#5489F3" points="102.551379 53.1979731 130.125357 71.0955079 161.075836 28.1726919 130.125357 32.2463279"></polygon>
                        <polygon id="Path-18" fill="#2C60C8" points="98.9111069 92.9050944 130.125357 71.0955079 102.551379 53.1979731"></polygon>
                        <polygon id="Path-19" fill="#326DE6" points="89.3655358 99.5651728 85.1257878 135.947191 130.125357 96.7091895 108.25451 86.3694773"></polygon>
                        <polygon id="Path-20" fill="#2D55A5" points="85.1241181 135.947191 67.6968568 155.874778 24.2659397 123.622439 67.6968568 114.713811"></polygon>
                        <polygon id="Path-21" fill="#2D55A5" points="-1.67580834e-15 128.595362 24.2659397 123.622439 21.749047 155.874778"></polygon>
                        <polygon id="Path-22" fill="#5489F3" points="21.749047 155.874778 67.6968568 155.874778 40.7543933 135.86299"></polygon>
                        <polygon id="Path-23" fill="#326DE6" points="24.2659397 123.622439 21.749047 155.874778 40.7543933 135.86299"></polygon>
                        <polygon id="Path-24" fill="#234A96" points="45.3100253 155.874778 21.749047 155.874778 33.7083286 170.863395"></polygon>
                        <polygon id="Path-25" fill="#1D52BB" points="40.7543933 170.863395 54.6950289 170.863395 67.6968568 155.874778 45.3100253 155.874778"></polygon>
                        <polygon id="Path-26" fill="#326DE6" points="33.7083286 170.863395 40.7543933 170.863395 45.3100253 155.874778"></polygon>
                        <polygon id="Path-27" fill="#5489F3" points="54.6950289 170.863395 56.911722 199.960405 33.7083286 170.863395"></polygon>
                        <polygon id="Path-28" fill="#1D4493" points="54.6950289 170.863395 85.1257878 170.863395 85.1257878 135.947191"></polygon>
                        <polygon id="Path-29" fill="#234A96" points="85.1257878 170.863395 54.6950289 170.863395 56.911722 199.960405"></polygon>
                        <polygon id="Path-30" fill="#2D55A5" points="130.125357 71.0955079 130.125357 96.7091895 162.736345 71.0955079"></polygon>
                        <polygon id="Path-31" fill="#326DE6" points="130.125357 71.0955079 191.979465 71.0955079 184.7912 39.6046105"></polygon>
                        <polygon id="Path-32" fill="#326DE6" points="130.125357 96.7091895 146.430851 112.653069 162.736345 71.0955079"></polygon>
                        <polygon id="Path-33" fill="#2D55A5" points="85.1257878 135.947191 146.430851 112.653069 130.125357 96.7091895"></polygon>
                        <polygon id="Path-34" fill="#1D52BB" points="146.430851 112.653069 189.959166 93.532354 191.979465 71.0955079 162.736345 71.0955079"></polygon>
                        <polygon id="Path-35" fill="#12357C" points="189.959166 93.532354 191.979465 71.0955079 197.105326 93.532354"></polygon>
                        <polygon id="Path-36" fill="#1D52BB" points="189.959166 93.532354 179.523226 112.653069 201.942118 114.705067 197.105326 93.532354"></polygon>
                        <polygon id="Path-37" fill="#12357C" points="179.523226 112.653069 146.430851 112.653069 189.959166 93.532354"></polygon>
                        <polygon id="Path-38" fill="#1D4493" points="162.736345 112.653069 133.556198 139.748608 85.1257878 135.947191 146.430851 112.653069"></polygon>
                        <polygon id="Path-39" fill="#326DE6" points="133.556198 139.748608 179.523226 112.653069 162.736345 112.653069"></polygon>
                        <polygon id="Path-40" fill="#5489F3" points="85.1257878 170.863395 111.043484 137.983025 85.1257878 135.947191"></polygon>
                        <polygon id="Path-41" fill="#1D4493" points="109.340993 155.874778 133.556198 139.748608 111.043484 137.983025"></polygon>
                        <polygon id="Path-42" fill="#1D52BB" points="109.340993 155.874778 111.043484 137.983025 85.1257878 170.863395"></polygon>
                        <polygon id="Path-43" fill="#12357C" points="179.523226 112.653069 189.959166 135.294294 205.102759 128.595362 201.942118 114.705067"></polygon>
                        <polygon id="Path-44" fill="#1D4493" points="189.959166 135.294294 205.102759 128.595362 189.959166 147.593613"></polygon>
                        <polygon id="Path-45" fill="#12357C" points="189.959166 147.593613 162.736345 122.56302 179.523226 112.653069"></polygon>
                        <polygon id="Path-46" fill="#326DE6" points="179.523226 112.653069 189.959166 135.294294 189.959166 147.593613"></polygon>
                        <polygon id="Path-47" fill="#1D4493" points="133.556198 139.748608 189.959166 147.593613 162.736345 122.56302"></polygon>
                        <polygon id="Path-48" fill="#1D52BB" points="133.556198 139.748608 156.539712 157.583739 156.539712 142.944774"></polygon>
                        <polygon id="Path-49" fill="#12357C" points="156.539712 157.583739 181.983502 157.583739 189.959166 147.593613 156.539712 142.944774"></polygon>
                        <polygon id="Path-50" fill="#2D55A5" points="156.539712 157.583739 181.983502 157.583739 169.261607 173.540309"></polygon>
                        <polygon id="Path-51" fill="#12357C" points="156.539712 157.583739 156.539712 189.511098 169.261607 173.540309"></polygon>
                        <polygon id="Path-52" fill="#1D52BB" points="85.1257878 170.863395 78.8269903 199.960405 56.911722 199.960405"></polygon>
                        <polygon id="Path-53" fill="#12357C" points="85.1241181 170.863395 118.472633 170.863395 137.395264 157.583739 106.587416 157.583739"></polygon>
                        <polygon id="Path-54" fill="#2D55A5" points="137.395264 157.583739 124.256589 145.949302 106.587416 157.583739"></polygon>
                        <polygon id="Path-55" fill="#1D4493" points="137.395264 157.583739 133.556198 139.748608 124.256589 145.949302"></polygon>
                        <polygon id="Path-56" fill="#234A96" points="156.539712 157.583739 137.395264 157.583739 133.556198 139.748608"></polygon>
                        <polygon id="Path-57" fill="#326DE6" points="78.8269903 199.960405 118.472633 170.863395 85.1257878 170.863395"></polygon>
                        <polygon id="Path-58" fill="#12357C" points="78.8269903 199.960405 106.587416 199.960405 102.551379 182.567471"></polygon>
                        <polygon id="Path-59" fill="#326DE6" points="148.191037 199.960405 156.539712 157.583739 156.539712 189.511098"></polygon>
                        <polygon id="Path-60" fill="#12357C" points="156.539712 157.583739 137.395264 157.583739 148.191037 199.960405"></polygon>
                        <polygon id="Path-61" fill="#1D4493" points="148.191037 199.960405 118.472633 170.863395 137.395264 157.583739"></polygon>
                        <polygon id="Path-62" fill="#1D4493" points="118.472633 170.863395 106.587416 199.960405 102.551379 182.567471"></polygon>
                        <polygon id="Path-63" fill="#12357C" points="106.587416 199.960405 148.191037 199.960405 130.432469 182.567471"></polygon>
                        <polygon id="Path-64" fill="#2D55A5" points="106.587416 199.960405 118.472633 170.863395 130.432469 182.567471"></polygon>
                        <polygon id="Path-65" fill="#5489F3" points="108.25451 86.3694773 130.125357 71.0955079 130.125357 96.7091895"></polygon>
                        <polygon id="Path-66" fill="#79A5FF" points="67.6968568 114.705067 98.9111069 92.9050944 88.8839571 77.3566719"></polygon>
                        <polygon id="Path-67" fill="#79A5FF" points="88.8839571 77.3566719 98.9111069 92.9050944 102.554719 53.1979731"></polygon>
                        <polygon id="Path-68" fill="#2D55A5" points="130.125357 71.0955079 161.052411 28.1984276 168.159611 49.1702837"></polygon>
                        <polygon id="Path-69" fill="#5489F3" points="168.159611 49.1702837 184.7912 39.6046105 161.075836 28.1984276"></polygon>
                        <polygon id="Path-70" fill="#5489F3" points="85.1257878 135.86299 89.3655358 99.5651728 67.6968568 114.713811"></polygon>
                        <polygon id="Path-71" fill="#2C60C8" points="2.01097001e-14 128.595362 44.0042076 92.3711991 67.6968568 114.713811"></polygon>
                    </g>
                    <g id="Group-2" opacity="0.857886905" transform="translate(0.943396, 2.830189)" fill="#FFFFFF">
                        <path d="M95.0595017,0.0990287784 L95.523108,0.286296559 L86.3727585,22.9397696 C86.7675675,23.1796614 87.086358,23.5322043 87.2845159,23.9527845 L123.009743,6.1011048 L123.233244,6.54837148 L87.4490422,24.4291857 C87.4878095,24.5988222 87.5082859,24.7754266 87.5082859,24.9568136 C87.5082859,25.0389105 87.5040913,25.1200277 87.4959046,25.1999626 L150.749718,29.2731838 C150.8469,28.7052369 151.147159,28.2066093 151.573101,27.8546977 L144.610991,17.3115601 L145.028223,17.0360294 L151.990055,27.5787654 C152.244383,27.4468718 152.525776,27.3599301 152.823713,27.3284617 L152.824324,21.2565691 L153.324324,21.2565691 L153.324493,27.3284151 C154.287115,27.4299058 155.07711,28.1104789 155.339668,29.015327 L166.237923,27.0691973 L166.325819,27.5614111 L155.427028,29.5072856 C155.430864,29.5622903 155.432814,29.6178148 155.432814,29.6737947 C155.432814,30.2425043 155.231524,30.7642001 154.896302,31.1715234 L178.024628,54.7119911 C178.426962,54.3927599 178.935924,54.2020966 179.489418,54.2020966 C179.740249,54.2020966 179.981934,54.241253 180.208694,54.3137866 L185.631703,40.8366324 L186.095562,41.0232716 L180.666075,54.5161254 C181.372456,54.9235498 181.847909,55.6865446 181.847909,56.5605872 C181.847909,56.5723129 181.847823,56.5840186 181.847652,56.5957038 L190.041717,57.6297309 L189.979106,58.1257953 L181.787746,57.092221 C181.67838,57.566944 181.425718,57.9868921 181.077751,58.3040757 L194.524404,77.8518805 L194.112462,78.1352596 L180.673921,58.6005032 C180.497379,58.7032359 180.306286,58.7837075 180.104486,58.838073 L187.386611,104.678029 L187.508286,104.673795 C188.726343,104.673795 189.728735,105.597167 189.853666,106.782116 L200.805338,106.782285 L200.805338,107.282285 L189.853619,107.282896 C189.760852,108.161199 189.185998,108.895731 188.398603,109.216947 L196.455544,137.151683 L195.975127,137.290246 L187.918905,109.355156 C187.785555,109.378567 187.648346,109.390776 187.508286,109.390776 C187.28787,109.390776 187.074516,109.36054 186.872146,109.303989 L167.382043,158.247467 C167.837936,158.488325 168.20537,158.874209 168.422925,159.343698 L181.954464,154.755662 L182.115032,155.229178 L168.583549,159.817301 C168.620741,159.983642 168.640361,160.156616 168.640361,160.334172 C168.640361,160.806095 168.501755,161.245645 168.26303,161.614332 L173.457861,165.814292 L173.143509,166.203114 L167.948605,162.002847 C167.577387,162.373636 167.083196,162.621338 166.532482,162.679505 L166.531871,175.100052 L166.031871,175.100052 L166.031701,162.679552 C165.328374,162.605399 164.717201,162.222114 164.336569,161.668085 L140.214765,172.785904 C140.294983,173.023174 140.338475,173.277368 140.338475,173.541719 C140.338475,174.169809 140.092956,174.740555 139.692655,175.163219 L153.26445,191.058068 L152.884197,191.382734 L139.312999,175.487638 C138.984811,175.712888 138.596775,175.85727 138.177629,175.892046 L137.696446,197.092692 L137.196574,197.081367 L137.67686,175.880911 C137.07238,175.803353 136.539505,175.496957 136.167888,175.051376 L102.784377,197.33456 L102.506794,196.91869 L135.890104,174.635859 C135.78975,174.444571 135.714889,174.237808 135.670036,174.020087 L54.0176434,182.051482 C54.0130667,182.625564 53.8033827,183.150783 53.4582686,183.557462 L66.226989,196.954141 L65.8650546,197.299109 L53.0965091,183.902381 C52.698599,184.208654 52.2001825,184.390776 51.6592293,184.390776 L51.6946107,184.389029 L51.054998,190.332518 L50.5578682,190.279021 L51.1968008,184.34546 C50.1956385,184.146432 49.4227683,183.313675 49.3138963,182.282896 L44.774198,182.282285 L44.774198,181.782285 L49.3138497,181.782116 C49.3959221,181.003672 49.8566836,180.338118 50.5085024,179.973086 L19.331715,106.929335 C19.1130746,106.996269 18.880924,107.032285 18.6403614,107.032285 C18.0399017,107.032285 17.4918519,106.807892 17.0754934,106.438388 L1.16838932,120.933847 L0.831610677,120.56428 L16.7382427,106.068488 C16.4513397,105.677861 16.2818709,105.195619 16.2818709,104.673795 C16.2818709,104.556494 16.2904341,104.441194 16.3069696,104.328485 L5.32823101,101.487364 L5.45348624,101.003307 L16.4320436,103.84384 C16.6932525,103.149157 17.2728579,102.610353 17.9930462,102.405244 L12.3893738,70.074364 L12.8820278,69.9889703 L18.4856107,102.320029 L18.6403614,102.315304 C18.987476,102.315304 19.3170765,102.390291 19.6138469,102.52495 L45.537585,58.4553427 C45.0718446,58.1095015 44.7380284,57.59601 44.6254001,57.0041317 L15.2124195,59.4440828 L15.1710763,58.945795 L44.5843971,56.5051178 C44.6001973,55.8205115 44.9077159,55.2080088 45.3874853,54.7870773 L29.5215321,32.2657114 L29.9302887,31.9777564 L45.796511,54.4986013 C46.1357362,54.3097081 46.5264252,54.2020966 46.9422482,54.2020966 C46.9999565,54.2020966 47.0571807,54.2041692 47.1138504,54.2082441 L53.2103154,20.5312942 L53.7023191,20.6203581 L47.6065367,54.2969399 C47.9862467,54.4081873 48.3262438,54.6123787 48.6002248,54.8832105 L83.3459922,26.4763591 C82.999884,26.065927 82.7913048,25.5357284 82.7913048,24.9568136 C82.7913048,24.4098701 82.9774821,23.9064106 83.2899197,23.506352 L72.9302672,11.202755 L73.3127198,10.8806835 L83.6405579,23.1443679 C84.0495411,22.803433 84.5757152,22.598323 85.1497954,22.598323 C85.4193157,22.598323 85.6782769,22.643532 85.9195093,22.7267803 L95.0595017,0.0990287784 Z M97.1233001,156.752343 C96.7221506,157.481542 95.9465094,157.975682 95.0554558,157.975682 C94.2989052,157.975682 93.6255541,157.619462 93.1939776,157.065598 L53.9372497,181.419205 C53.9491695,181.463605 53.9598258,181.508523 53.9691776,181.553918 L135.62157,173.522522 C135.623379,173.295647 135.657221,173.076402 135.718797,172.86909 Z M60.2492947,138.493164 C59.8299452,139.14654 59.0970304,139.579455 58.2630029,139.579455 C58.2325161,139.579455 58.2021644,139.578877 58.1719581,139.57773 L52.3154725,179.766296 C52.9400705,179.946865 53.4580298,180.378684 53.7527933,180.945195 L92.929778,156.640192 C92.7805808,156.330744 92.6969652,155.983732 92.6969652,155.617191 C92.6969652,155.326468 92.7495668,155.048032 92.8457718,154.790879 Z M20.2934531,106.355986 C20.1441395,106.502733 19.9753768,106.629754 19.7913861,106.732827 L50.9678758,179.776745 C51.1865162,179.709811 51.4186668,179.673795 51.6592293,179.673795 C51.7141896,179.673795 51.7687108,179.675675 51.8227321,179.679374 L57.6765548,139.505967 C56.6577114,139.245255 55.9045124,138.321069 55.9045124,137.220965 C55.9045124,136.742257 56.0471327,136.296861 56.2922007,135.924948 Z M112.922701,104.614241 L96.0578786,153.481714 C96.8591973,153.858518 97.4139463,154.67307 97.4139463,155.617191 C97.4139463,155.850898 97.3799536,156.076666 97.3166426,156.28982 L135.912461,172.405984 C136.152607,171.969745 136.526803,171.617686 136.97955,171.405309 L113.97931,104.614551 C113.809674,104.653318 113.633069,104.673795 113.451682,104.673795 C113.269813,104.673795 113.092751,104.653209 112.922701,104.614241 Z M151.388462,134.76517 C151.175308,134.828481 150.94954,134.862474 150.715833,134.862474 C150.615531,134.862474 150.516691,134.856213 150.419682,134.84406 L138.921295,171.378566 C139.374296,171.575967 139.753261,171.911497 140.004988,172.331954 L164.09769,161.225668 C163.985316,160.950633 163.92338,160.649635 163.92338,160.334172 C163.92338,159.573457 164.283533,158.896859 164.842628,158.465588 Z M114.732836,104.29582 C114.64314,104.353962 114.549245,104.406176 114.451705,104.451908 L137.452356,171.242472 C137.621993,171.203705 137.798597,171.183229 137.979984,171.183229 C138.139302,171.183229 138.294931,171.199026 138.445389,171.229139 L149.933027,134.729455 C149.015242,134.406634 148.357343,133.532139 148.357343,132.503983 C148.357343,132.040117 148.491257,131.607527 148.722535,131.242766 Z M157.61474,96.1767192 L151.38442,130.2416 C152.361347,130.529852 153.074324,131.433656 153.074324,132.503983 C153.074324,133.393822 152.581531,134.168563 151.853967,134.570185 L165.268527,158.203865 C165.410348,158.136283 165.55998,158.082446 165.715699,158.044077 L157.781197,96.1832075 C157.72523,96.1829727 157.669722,96.1807884 157.61474,96.1767192 Z M159.596771,95.3423095 C159.263927,95.7378849 158.803464,96.0225207 158.278813,96.1327845 L166.210611,157.978029 L166.281871,157.975682 C166.501918,157.975682 166.714926,158.005817 166.916994,158.062185 L186.407789,109.118818 C185.659635,108.723403 185.149795,107.937384 185.149795,107.032285 C185.149795,106.790623 185.186142,106.557449 185.253666,106.337933 Z M111.616109,103.796361 L60.5716997,136.736562 C60.6043369,136.892905 60.6214935,137.054931 60.6214935,137.220965 C60.6214935,137.511308 60.5690291,137.789397 60.4730635,138.046269 L93.069164,154.344992 C93.4885135,153.691615 94.2214283,153.2587 95.0554558,153.2587 C95.2373251,153.2587 95.4143865,153.279286 95.5844369,153.318254 L112.449259,104.450781 C112.12407,104.297867 111.839488,104.072861 111.616109,103.796361 Z M79.1754489,87.4541216 C78.7680393,88.1605603 78.0050127,88.6360589 77.1309275,88.6360589 C76.9289303,88.6360589 76.7328642,88.6106648 76.5457475,88.562895 L59.2073413,135.059133 C59.7401047,135.292185 60.1701518,135.716406 60.4107497,136.245063 L111.345152,103.377101 C111.183979,103.057976 111.093192,102.697242 111.093192,102.315304 C111.093192,102.064474 111.132348,101.822789 111.204882,101.596028 Z M45.9677614,58.7089772 L20.0440294,102.778301 C20.6233758,103.208031 20.998852,103.897064 20.998852,104.673795 C20.998852,105.151654 20.8567365,105.59632 20.6124651,105.967834 L56.6099113,135.538773 C56.9045216,135.249228 57.2748499,135.036477 57.6884716,134.932946 L47.0196107,58.9160288 L46.9422482,58.9190778 C46.5947431,58.9190778 46.2647917,58.8439217 45.9677614,58.7089772 Z M48.4499211,58.374336 C48.1824425,58.5969214 47.8649489,58.7614577 47.5167796,58.8486058 L58.1846107,134.864029 L58.2630029,134.862474 C58.4226714,134.862474 58.578634,134.87834 58.7294002,134.908583 L76.0771518,88.3881307 C75.3035823,88.0011464 74.7724369,87.2013852 74.7724369,86.2775683 C74.7724369,85.6297429 75.0336275,85.0429218 75.4564465,84.6166674 Z M155.537609,94.5220876 L115.802157,102.119449 C115.807466,102.184032 115.810173,102.249352 115.810173,102.315304 C115.810173,102.960663 115.550968,103.54548 115.130986,103.971328 L149.033642,130.850892 C149.461539,130.41551 150.057153,130.145493 150.715833,130.145493 C150.774885,130.145493 150.83343,130.147663 150.891393,130.151928 L157.122718,96.0871217 C156.367369,95.8642483 155.769816,95.2733861 155.537609,94.5220876 Z M178.590043,58.7415319 L159.194973,91.929244 C159.774319,92.3589743 160.149795,93.0480076 160.149795,93.8247381 C160.149795,94.2200419 160.052542,94.592631 159.880657,94.9198843 L185.450919,105.878293 C185.757651,105.332614 186.275195,104.92132 186.893139,104.754821 L179.609611,58.9150288 L179.489418,58.9190778 C179.170939,58.9190778 178.867205,58.8559527 178.590043,58.7415319 Z M126.597533,58.4923578 C126.214442,58.7612488 125.74772,58.9190778 125.244135,58.9190778 C125.127185,58.9190778 125.012223,58.9105655 124.899835,58.8941269 L114.278638,100.105861 C114.961841,100.361687 115.494714,100.925322 115.708443,101.627952 L155.441594,94.0296703 C155.435781,93.9621329 155.432814,93.893782 155.432814,93.8247381 C155.432814,93.2084899 155.669163,92.6474438 156.056159,92.2273014 Z M123.38023,58.0058747 L79.2579164,85.2572911 C79.4062923,85.5660514 79.489418,85.9121023 79.489418,86.2775683 C79.489418,86.5280321 79.4503761,86.7693772 79.378046,86.9958497 L111.40722,101.138648 C111.814645,100.432266 112.57764,99.9568136 113.451682,99.9568136 C113.568282,99.9568136 113.682906,99.9652749 113.794973,99.9816171 L124.415809,58.7695167 C124.003364,58.6147825 123.64578,58.3478437 123.38023,58.0058747 Z M177.143933,56.8097541 L127.589515,56.8107567 C127.534723,57.3304499 127.31115,57.7998287 126.974626,58.1630629 L156.431147,91.8977298 C156.815502,91.625941 157.284754,91.4662476 157.791305,91.4662476 C158.138029,91.4662476 158.467278,91.5410662 158.763789,91.6754393 L178.149425,58.5016982 C177.59841,58.1205986 177.217557,57.5109275 177.143933,56.8097541 Z M86.8472995,26.59418 C86.4183576,27.0387763 85.8163698,27.3153042 85.1497954,27.3153042 C85.1390747,27.3153042 85.1283708,27.3152326 85.117684,27.31509 L77.6835492,83.9841777 C78.2118375,84.1110153 78.6709414,84.4156501 78.9940401,84.8312609 L123.116196,57.5788847 C122.968415,57.2706252 122.885644,56.9252723 122.885644,56.5605872 C122.885644,56.0986334 123.018457,55.6676995 123.247981,55.3038865 Z M83.7105371,26.825385 L48.9155155,55.2683194 C49.1590745,55.6394749 49.3007388,56.0834873 49.3007388,56.5605872 C49.3007388,57.1093502 49.1133208,57.6143394 48.7990015,58.015038 L75.8458027,84.2996321 C76.2155062,84.0589325 76.6568844,83.9190778 77.1309275,83.9190778 C77.1498051,83.9190778 77.168631,83.9192996 77.1874026,83.9197407 L84.6218225,27.2559815 C84.2848444,27.1789177 83.9753712,27.0296741 83.7105371,26.825385 Z M151.56109,31.4829018 L127.104867,55.1112227 C127.368467,55.4491566 127.542022,55.860762 127.589468,56.3099764 L177.144085,56.3099764 C177.193867,55.8386512 177.382477,55.4087284 177.66826,55.0618621 L154.539925,31.5217472 C154.137463,31.8413657 153.628189,32.0322853 153.074324,32.0322853 C152.498372,32.0322853 151.970639,31.8258359 151.56109,31.4829018 Z M87.3908004,25.6939606 C87.3320481,25.8726788 87.2525133,26.0419664 87.1550549,26.1989645 L123.557143,54.9123944 C123.98538,54.4741398 124.582988,54.2020966 125.244135,54.2020966 C125.819803,54.2020966 126.347299,54.4083426 126.756763,54.7509731 L151.213592,31.1231593 C150.90167,30.7232775 150.715833,30.2202384 150.715833,29.6737947 L150.718611,29.7720288 Z" id="Combined-Shape"></path>
                    </g>
                </g>
                <path d="M286.808232,164 C294.307701,164 300.307275,158.005602 300.307275,150.662465 L300.30814,137.309584 C300.327435,136.942344 300.615361,130.022295 295.507616,120.690476 L282.60853,96.4131653 C282.60853,96.4131653 277.95886,88.4705882 277.95886,82.3263305 L277.95886,72.2857143 C277.95886,68.9887955 280.508679,66.4411765 283.658456,66.4411765 C286.808232,66.4411765 289.358052,68.9887955 289.358052,72.2857143 L289.358052,84.4243697 C292.20785,83.2254902 296.407552,81.2773109 297.307488,80.8277311 C298.657392,80.0784314 300.307275,78.429972 300.307275,74.9831933 L300.307275,70.9369748 C300.307275,63.7436975 294.45769,57.1498599 287.258201,57 L280.508679,57 C273.009211,57 267.009636,63.5938375 267.009636,70.9369748 L267.008772,81.7422368 C266.989477,82.109477 266.70155,89.0295253 271.809296,98.3613445 L284.708381,122.488796 C284.708381,122.488796 289.358052,130.581232 289.358052,136.72549 L289.358052,148.714286 C289.358052,152.011204 286.808232,154.558824 283.658456,154.558824 C280.508679,154.558824 277.95886,152.011204 277.95886,148.864146 L277.95886,130.581232 C275.259051,131.780112 270.90936,133.728291 270.009424,134.028011 C268.659519,134.777311 267.009636,136.42577 267.009636,139.872549 L267.009636,150.662465 C267.159626,157.855742 272.859222,163.70028 280.058711,164 L286.808232,164 Z M377.551798,164 C384.751287,163.70028 390.450883,157.855742 390.450883,150.662465 L390.450883,125.336134 C387.751074,126.535014 383.551372,128.333333 382.651436,128.782913 C381.301532,129.532213 379.801638,131.180672 379.801638,134.627451 L379.801638,148.714286 C379.801638,152.011204 377.251819,154.558824 373.952053,154.558824 C370.802276,154.558824 368.252457,152.011204 368.252457,148.714286 L368.252457,72.1358543 C368.252457,68.9887955 370.802276,66.4411765 373.952053,66.4411765 C377.251819,66.4411765 379.801638,68.9887955 379.801638,72.1358543 L379.801638,95.6638655 L387.601085,92.0672269 C388.950989,91.4677871 390.450883,89.8193277 390.450883,86.372549 L390.450883,70.337535 C390.450883,63.1442577 384.751287,57.1498599 377.551798,57 L370.952266,57 C363.452797,57 357.453223,62.9943978 357.453223,70.337535 L357.453223,150.662465 C357.453223,158.005602 363.452797,164 370.952266,164 L377.551798,164 Z M456.596192,162.95098 L456.596192,114.845938 L468.295363,114.845938 C469.645267,114.845938 470.695193,115.894958 470.845182,117.243697 L470.845182,162.95098 L481.644416,162.95098 L481.644416,62.245098 C481.644416,60.4467787 480.594491,58.0490196 477.294725,58.0490196 L470.845182,58.0490196 L470.845182,104.205882 L460.345927,104.205882 C457.796107,104.205882 456.596192,103.456583 456.596192,100.459384 L456.596192,58.0490196 L450.14665,58.0490196 C446.846884,58.0490196 445.796958,60.4467787 445.796958,62.245098 L445.796958,162.95098 L456.596192,162.95098 Z M565.488471,162.95098 C568.938226,162.95098 570.588109,161.452381 571.338056,160.103641 C571.788024,159.204482 573.587896,155.008403 574.787811,152.310924 L552.289407,152.310924 L552.289407,115.894958 C552.289407,114.546218 553.489322,113.347339 554.839226,113.347339 L559.338907,113.347339 C562.788662,113.347339 564.288556,111.848739 565.038503,110.5 C565.488471,109.60084 567.288343,105.254902 568.488258,102.557423 L552.289407,102.557423 L552.289407,71.3865546 C552.289407,69.8879552 553.339332,68.8389356 554.839226,68.8389356 L563.538609,68.8389356 C566.988364,68.8389356 568.638247,67.1904762 569.238205,65.8417367 L572.837949,58.0490196 L544.789938,58.0490196 C542.990066,58.0490196 541.640162,59.3977591 541.490172,61.0462185 L541.490172,162.95098 L565.488471,162.95098 Z M632.233738,162.95098 L632.233738,108.851541 L638.533291,136.27591 C639.133248,138.52381 640.333163,144.817927 646.632717,144.817927 L649.932483,144.817927 L658.031908,108.851541 L658.031908,162.95098 L668.681153,162.95098 L668.681153,58.0490196 L662.081621,58.0490196 C658.181898,58.0490196 657.431951,61.3459384 657.281961,61.7955182 L645.432802,122.189076 L632.983684,61.9453782 C632.983684,61.9453782 632.383727,58.0490196 628.184025,58.0490196 L621.584493,58.0490196 L621.584493,162.95098 L632.233738,162.95098 Z M724.177218,162.95098 L733.626548,90.7184874 L743.075878,162.95098 L754.925037,162.95098 L739.776112,63.7436975 C739.326143,60.8963585 738.576197,58.0490196 734.076516,58.0490196 L734.076516,58.0490196 L728.226931,58.0490196 L712.328058,162.95098 L724.177218,162.95098 Z M813.570879,162.95098 L813.570879,114.845938 L825.270049,114.845938 C826.619953,114.845938 827.669879,115.894958 827.819868,117.243697 L827.819868,162.95098 L838.619102,162.95098 L838.619102,62.245098 C838.619102,60.4467787 837.569177,58.0490196 834.269411,58.0490196 L827.819868,58.0490196 L827.819868,104.205882 L817.320613,104.205882 C814.770794,104.205882 813.570879,103.456583 813.570879,100.459384 L813.570879,58.0490196 L807.121336,58.0490196 C803.82157,58.0490196 802.771644,60.4467787 802.771644,62.245098 L802.771644,162.95098 L813.570879,162.95098 Z M922.463157,162.95098 C925.912912,162.95098 927.562795,161.452381 928.312742,160.103641 C928.76271,159.204482 930.562582,155.008403 931.762497,152.310924 L909.264093,152.310924 L909.264093,115.894958 C909.264093,114.546218 910.464008,113.347339 911.813912,113.347339 L916.313593,113.347339 C919.763348,113.347339 921.263242,111.848739 922.013189,110.5 C922.463157,109.60084 924.263029,105.254902 925.462944,102.557423 L909.264093,102.557423 L909.264093,71.3865546 C909.264093,69.8879552 910.314018,68.8389356 911.813912,68.8389356 L920.513295,68.8389356 C923.96305,68.8389356 925.612933,67.1904762 926.212891,65.8417367 L929.812636,58.0490196 L901.764625,58.0490196 C899.964752,58.0490196 898.614848,59.3977591 898.464859,61.0462185 L898.464859,162.95098 L922.463157,162.95098 Z M994.75803,162.95098 L994.75803,117.843137 L1000.45763,117.843137 C1003.30742,117.843137 1006.00723,119.491597 1006.00723,124.586835 L1006.00723,162.95098 L1016.80647,162.95098 L1016.80737,122.760316 C1016.82198,122.248669 1016.95909,114.922183 1012.90674,112.897759 C1017.18012,111.867143 1016.82078,103.893432 1016.80685,103.61397 L1016.80647,71.2366947 C1016.80647,63.8935574 1010.80689,58.0490196 1003.6074,58.0490196 L983.958796,58.0490196 L983.958796,162.95098 L994.75803,162.95098 Z M1000.45763,107.652661 L994.75803,107.652661 L994.75803,68.0896359 L1000.45763,68.0896359 C1003.30742,68.0896359 1006.00723,69.5882353 1006.00723,73.4845938 L1006.00723,101.658263 C1006.00723,106.453782 1003.30742,107.652661 1000.45763,107.652661 Z M1094.95093,164 C1102.15041,163.70028 1107.85001,158.005602 1108,150.812325 L1108,70.337535 C1108,63.1442577 1102.15041,57.2997199 1094.95093,57 L1086.70151,57 C1079.20204,57 1073.20247,62.9943978 1073.20247,70.337535 L1073.20247,150.812325 C1073.35246,158.005602 1079.35203,164 1086.70151,164 L1094.95093,164 Z M1091.35118,154.558824 L1089.7013,154.558824 C1086.55152,154.408964 1084.0017,151.861345 1084.0017,148.714286 L1084.0017,72.2857143 C1084.0017,69.1386555 1086.55152,66.5910364 1089.7013,66.4411765 L1091.35118,66.4411765 C1094.50096,66.4411765 1097.05078,68.9887955 1097.05078,72.2857143 L1097.05078,148.714286 C1097.05078,152.011204 1094.50096,154.558824 1091.35118,154.558824 Z" id="SchemaHero" fill="#326DE6" fill-rule="nonzero"></path>
            </g>
        </g>
    </g>
</svg>
